<?xml version="1.0" encoding="UTF-8" standalone="no"?>
<!-- Created with Inkscape (http://www.inkscape.org/) -->

<svg
   xmlns:dc="http://purl.org/dc/elements/1.1/"
   xmlns:cc="http://creativecommons.org/ns#"
   xmlns:rdf="http://www.w3.org/1999/02/22-rdf-syntax-ns#"
   xmlns:svg="http://www.w3.org/2000/svg"
   xmlns="http://www.w3.org/2000/svg"
   xmlns:sodipodi="http://sodipodi.sourceforge.net/DTD/sodipodi-0.dtd"
   xmlns:inkscape="http://www.inkscape.org/namespaces/inkscape"
   width="1197.0762"
   height="727.29169"
   id="svg2"
   version="1.1"
   inkscape:version="0.92.5 (2060ec1f9f, 2020-04-08)"
   sodipodi:docname="interpolation_rbf.svg">
  <sodipodi:namedview
     id="base"
     pagecolor="#ffffff"
     bordercolor="#666666"
     borderopacity="1.0"
     inkscape:pageopacity="0.0"
     inkscape:pageshadow="2"
     inkscape:zoom="0.5"
     inkscape:cx="418.06348"
     inkscape:cy="288.5"
     inkscape:document-units="px"
     inkscape:current-layer="layer1"
     showgrid="false"
     inkscape:window-width="1548"
     inkscape:window-height="836"
     inkscape:window-x="52"
     inkscape:window-y="27"
     inkscape:window-maximized="1"
     fit-margin-top="0"
     fit-margin-left="0"
     fit-margin-right="0"
     fit-margin-bottom="0" />
  <defs
     id="defs4">
    <marker
       inkscape:stockid="StopL"
       orient="auto"
       refY="0"
       refX="0"
       id="marker1011"
       style="overflow:visible"
       inkscape:isstock="true">
      <path
         id="path1009"
         d="M 0,5.65 V -5.65"
         style="fill:none;stroke:#000000;stroke-width:1.00000003pt;stroke-opacity:1"
         transform="scale(0.8)"
         inkscape:connector-curvature="0" />
    </marker>
    <marker
       style="overflow:visible"
       id="StopL"
       refX="0"
       refY="0"
       orient="auto"
       inkscape:stockid="StopL">
      <path
         transform="scale(0.8)"
         style="fill:none;stroke:#000000;stroke-width:1.00000003pt"
         d="M 0,5.65 V -5.65"
         id="path4012"
         inkscape:connector-curvature="0" />
    </marker>
    <marker
       style="overflow:visible"
       id="StopM"
       refX="0"
       refY="0"
       orient="auto"
       inkscape:stockid="StopM">
      <path
         transform="scale(0.4)"
         style="fill:none;stroke:#000000;stroke-width:1.00000003pt"
         d="M 0,5.65 V -5.65"
         id="path4015"
         inkscape:connector-curvature="0" />
    </marker>
    <marker
       inkscape:isstock="true"
       style="overflow:visible"
       id="marker6664"
       refX="0"
       refY="0"
       orient="auto"
       inkscape:stockid="StopL"
       inkscape:collect="always">
      <path
         inkscape:connector-curvature="0"
         transform="scale(0.8)"
         style="fill:none;stroke:#000000;stroke-width:1.00000003pt;stroke-opacity:1"
         d="M 0,5.65 V -5.65"
         id="path6666" />
    </marker>
    <marker
       style="overflow:visible"
       id="Arrow1MendiD"
       refX="0"
       refY="0"
       orient="auto"
       inkscape:stockid="Arrow1MendiD">
      <path
         inkscape:connector-curvature="0"
         transform="matrix(-0.4,0,0,-0.4,-4,0)"
         style="fill:#b3b3b3;fill-rule:evenodd;stroke:#b3b3b3;stroke-width:1.00000003pt"
         d="M 0,0 5,-5 -12.5,0 5,5 Z"
         id="path4675" />
    </marker>
    <marker
       style="overflow:visible"
       id="Arrow1MendiD2"
       refX="0"
       refY="0"
       orient="auto"
       inkscape:stockid="Arrow1MendiD2">
      <path
         inkscape:connector-curvature="0"
         transform="matrix(-0.4,0,0,-0.4,-4,0)"
         style="fill:#808080;fill-rule:evenodd;stroke:#808080;stroke-width:1.00000003pt"
         d="M 0,0 5,-5 -12.5,0 5,5 Z"
         id="path5116" />
    </marker>
    <marker
       style="overflow:visible"
       id="Arrow1MendiD2s"
       refX="0"
       refY="0"
       orient="auto"
       inkscape:stockid="Arrow1MendiD2s">
      <path
         inkscape:connector-curvature="0"
         transform="matrix(-0.4,0,0,-0.4,-4,0)"
         style="fill:#999999;fill-rule:evenodd;stroke:#999999;stroke-width:1.00000003pt"
         d="M 0,0 5,-5 -12.5,0 5,5 Z"
         id="path5202" />
    </marker>
    <marker
       style="overflow:visible"
       id="Arrow1MendiD2s-2"
       refX="0"
       refY="0"
       orient="auto"
       inkscape:stockid="Arrow1MendiD2s">
      <path
         inkscape:connector-curvature="0"
         transform="matrix(-0.4,0,0,-0.4,-4,0)"
         style="fill:#999999;fill-rule:evenodd;stroke:#999999;stroke-width:1.00000003pt"
         d="M 0,0 5,-5 -12.5,0 5,5 Z"
         id="path5202-0" />
    </marker>
    <marker
       style="overflow:visible"
       id="Arrow1MendiD2s6"
       refX="0"
       refY="0"
       orient="auto"
       inkscape:stockid="Arrow1MendiD2s6">
      <path
         inkscape:connector-curvature="0"
         transform="matrix(-0.4,0,0,-0.4,-4,0)"
         style="fill:#b3b3b3;fill-rule:evenodd;stroke:#b3b3b3;stroke-width:1.00000003pt"
         d="M 0,0 5,-5 -12.5,0 5,5 Z"
         id="path5317" />
    </marker>
    <marker
       style="overflow:visible"
       id="Arrow1MendiD2s6P"
       refX="0"
       refY="0"
       orient="auto"
       inkscape:stockid="Arrow1MendiD2s6P">
      <path
         inkscape:connector-curvature="0"
         transform="matrix(-0.4,0,0,-0.4,-4,0)"
         style="fill:#000000;fill-rule:evenodd;stroke:#000000;stroke-width:1.00000003pt"
         d="M 0,0 5,-5 -12.5,0 5,5 Z"
         id="path8446" />
    </marker>
    <marker
       style="overflow:visible"
       id="Arrow1MendiD2sH"
       refX="0"
       refY="0"
       orient="auto"
       inkscape:stockid="Arrow1MendiD2sH">
      <path
         inkscape:connector-curvature="0"
         transform="matrix(-0.4,0,0,-0.4,-4,0)"
         style="fill:#000000;fill-rule:evenodd;stroke:#000000;stroke-width:1.00000003pt"
         d="M 0,0 5,-5 -12.5,0 5,5 Z"
         id="path8549" />
    </marker>
    <marker
       inkscape:stockid="StopL"
       orient="auto"
       refY="0"
       refX="0"
       id="marker1011-3"
       style="overflow:visible"
       inkscape:isstock="true">
      <path
         id="path1009-6"
         d="M 0,5.65 V -5.65"
         style="fill:none;stroke:#000000;stroke-width:1.00000003pt;stroke-opacity:1"
         transform="scale(0.8)"
         inkscape:connector-curvature="0" />
    </marker>
    <marker
       inkscape:stockid="StopL"
       orient="auto"
       refY="0"
       refX="0"
       id="marker1011-1"
       style="overflow:visible"
       inkscape:isstock="true">
      <path
         id="path1009-8"
         d="M 0,5.65 V -5.65"
         style="fill:none;stroke:#000000;stroke-width:1.00000003pt;stroke-opacity:1"
         transform="scale(0.8)"
         inkscape:connector-curvature="0" />
    </marker>
    <marker
       inkscape:stockid="StopL"
       orient="auto"
       refY="0"
       refX="0"
       id="marker1011-31"
       style="overflow:visible"
       inkscape:isstock="true">
      <path
         id="path1009-9"
         d="M 0,5.65 V -5.65"
         style="fill:none;stroke:#000000;stroke-width:1.00000003pt;stroke-opacity:1"
         transform="scale(0.8)"
         inkscape:connector-curvature="0" />
    </marker>
    <marker
       style="overflow:visible"
       id="Arrow1MendiD2s6P-1"
       refX="0"
       refY="0"
       orient="auto"
       inkscape:stockid="Arrow1MendiD2s6P">
      <path
         inkscape:connector-curvature="0"
         transform="matrix(-0.4,0,0,-0.4,-4,0)"
         style="fill:#000000;fill-rule:evenodd;stroke:#000000;stroke-width:1.00000003pt"
         d="M 0,0 5,-5 -12.5,0 5,5 Z"
         id="path8446-0" />
    </marker>
    <marker
       style="overflow:visible"
       id="Arrow1MendiD2s6P-0"
       refX="0"
       refY="0"
       orient="auto"
       inkscape:stockid="Arrow1MendiD2s6P">
      <path
         inkscape:connector-curvature="0"
         transform="matrix(-0.4,0,0,-0.4,-4,0)"
         style="fill:#000000;fill-rule:evenodd;stroke:#000000;stroke-width:1.00000003pt"
         d="M 0,0 5,-5 -12.5,0 5,5 Z"
         id="path8446-6" />
    </marker>
  </defs>
  <metadata
     id="metadata7">
    <rdf:RDF>
      <cc:Work
         rdf:about="">
        <dc:format>image/svg+xml</dc:format>
        <dc:type
           rdf:resource="http://purl.org/dc/dcmitype/StillImage" />
        <dc:title></dc:title>
      </cc:Work>
    </rdf:RDF>
  </metadata>
  <g
     id="layer1"
     inkscape:groupmode="layer"
     inkscape:label="Layer 1"
     transform="translate(683.36676,53.303071)">
    <path
       inkscape:connector-curvature="0"
       id="path2987"
       d="m 267.19257,452.37149 c 4.63589,-2.12891 22.9834,-14.85173 29.42733,-8.4078 40.65501,40.65501 -38.88611,69.36722 -38.88611,22.0705 0,-9.95423 -1.17821,-11.00344 9.45878,-13.6627 z"
       style="fill:#000000;fill-opacity:0.19607843;stroke:#b3b3b3;stroke-width:1.5;stroke-linecap:butt;stroke-linejoin:miter;stroke-miterlimit:4;stroke-dasharray:3, 3;stroke-dashoffset:0;stroke-opacity:1" />
    <path
       sodipodi:nodetypes="cssc"
       inkscape:connector-curvature="0"
       id="path2993"
       d="m 258.24382,408.51646 c 22.80037,-12.05596 37.65328,11.41334 63.29168,19.95947 41.193,13.73101 21.92064,120.78311 -63.80171,92.209 -34.58676,-11.52892 -44.7253,-105.70628 0.51003,-112.16847 z"
       style="fill:#000000;fill-opacity:0.19607843;stroke:#b3b3b3;stroke-width:1.5;stroke-linecap:butt;stroke-linejoin:miter;stroke-miterlimit:4;stroke-dasharray:3, 3;stroke-dashoffset:0;stroke-opacity:1" />
    <path
       sodipodi:nodetypes="cssssc"
       inkscape:connector-curvature="0"
       id="path2995"
       d="m 246.14213,373.90894 c 56.22452,-17.2681 59.30805,0.31559 84.1921,16.98104 24.88405,16.66544 58.93504,34.6421 56.70382,64.23539 -4.46242,59.18656 -53.7281,113.56212 -129.40989,98.42576 -28.35274,-5.67055 -57.28138,-33.15004 -61.82015,-75.54473 -4.53878,-42.39469 22.74385,-92.27306 50.33412,-104.09746 z"
       style="fill:#000000;fill-opacity:0.19607843;stroke:#b3b3b3;stroke-width:1.5;stroke-linecap:butt;stroke-linejoin:miter;stroke-miterlimit:4;stroke-dasharray:3, 3;stroke-dashoffset:0;stroke-opacity:1" />
    <path
       sodipodi:nodetypes="csssscc"
       inkscape:connector-curvature="0"
       id="path2997"
       d="m 163.14597,397.72075 c 25.65398,-57.23674 58.91353,-70.83671 120.99878,-69.74692 29.93708,0.52548 56.25091,16.73952 91.75915,44.55234 26.33826,20.63018 57.91628,46.41614 47.34313,99.28197 -4.3419,21.70945 -16.98801,64.76959 -31.40177,81.14923 -18.93141,21.51345 -76.63802,50.62449 -120.44877,49.70368 -102.25678,-1.21428 -141.5077,-121.65771 -108.25052,-204.9403 z"
       style="fill:#000000;fill-opacity:0.19607843;stroke:#b3b3b3;stroke-width:1.5;stroke-linecap:butt;stroke-linejoin:miter;stroke-miterlimit:4;stroke-dasharray:3, 3;stroke-dashoffset:0;stroke-opacity:1" />
    <circle
       id="path3771"
       style="fill:#000000;fill-opacity:1;stroke:none;stroke-width:0.19599999"
       cx="281.82736"
       cy="470.06464"
       r="3.5" />
    <circle
       id="path3771-9"
       style="fill:#000000;fill-opacity:1;stroke:none;stroke-width:0.19599999"
       cx="367.66718"
       cy="377.24356"
       r="3.5" />
    <path
       sodipodi:nodetypes="ccc"
       inkscape:connector-curvature="0"
       id="path3837"
       d="m 281.54163,470.35035 43.125,-46.42858 43.125,-46.42857"
       style="fill:none;stroke:#000000;stroke-width:2;stroke-linecap:butt;stroke-linejoin:miter;stroke-miterlimit:4;stroke-dasharray:none;stroke-dashoffset:0;stroke-opacity:1;marker-mid:url(#marker6664)" />
    <path
       sodipodi:nodetypes="cssc"
       inkscape:connector-curvature="0"
       id="path2987-3"
       d="m -248.11131,301.21675 c 4.63589,-2.12891 27.02401,-6.77051 33.46794,-0.32658 40.65502,40.65501 -26.76428,71.38753 -37.87596,31.16187 -2.65043,-9.59489 -6.22897,-28.17603 4.40802,-30.83529 z"
       style="fill:#000000;fill-opacity:0.19607843;stroke:#999999;stroke-width:1.5;stroke-linecap:butt;stroke-linejoin:miter;stroke-miterlimit:4;stroke-dasharray:6, 3;stroke-dashoffset:0;stroke-opacity:1" />
    <path
       sodipodi:nodetypes="cssc"
       inkscape:connector-curvature="0"
       id="path2993-5"
       d="m -253.01945,265.44294 c 22.80037,-12.05596 81.89493,8.15857 88.02556,27.20386 8.95904,27.83196 -0.79292,71.11231 -88.53559,84.96461 -36.01162,5.6853 -51.79637,-91.56414 0.51003,-112.16847 z"
       style="fill:#000000;fill-opacity:0.19607843;stroke:#999999;stroke-width:1.5;stroke-linecap:butt;stroke-linejoin:miter;stroke-miterlimit:4;stroke-dasharray:6, 3;stroke-dashoffset:0;stroke-opacity:1" />
    <path
       sodipodi:nodetypes="cssssc"
       inkscape:connector-curvature="0"
       id="path2995-8"
       d="m -275.22266,232.85573 c 56.22452,-17.2681 93.65323,-1.70471 118.53729,14.96073 24.88405,16.66544 50.16693,42.27965 30.43984,80.39783 -26.42467,51.05984 -55.52616,54.94316 -118.29821,83.27347 -56.73292,25.60474 -74.45397,-44.26172 -78.99274,-86.65641 -4.53878,-42.39469 18.70324,-82.17153 48.31382,-91.97562 z"
       style="fill:#000000;fill-opacity:0.19607843;stroke:#999999;stroke-width:1.5;stroke-linecap:butt;stroke-linejoin:miter;stroke-miterlimit:4;stroke-dasharray:6, 3;stroke-dashoffset:0;stroke-opacity:1" />
    <path
       sodipodi:nodetypes="csssscc"
       inkscape:connector-curvature="0"
       id="path2997-5"
       d="m -341.04623,259.69799 c 25.65398,-57.23674 43.76124,-83.96869 105.84649,-82.8789 29.93708,0.52548 87.56565,23.81059 123.07388,51.62341 26.338265,20.63018 34.682775,47.42629 24.109625,100.29212 -4.3419,21.70945 -29.109845,54.66806 -43.523595,71.0477 -18.93141,21.51345 -104.9223,55.67526 -148.73305,54.75445 -102.25678,-1.21428 -94.03053,-111.55619 -60.77335,-194.83878 z"
       style="fill:#000000;fill-opacity:0.19607843;stroke:#999999;stroke-width:1.5;stroke-linecap:butt;stroke-linejoin:miter;stroke-miterlimit:4;stroke-dasharray:6, 3;stroke-dashoffset:0;stroke-opacity:1" />
    <circle
       id="path3771-0"
       style="fill:#000000;fill-opacity:1;stroke:none;stroke-width:0.19599999"
       cx="-229.43591"
       cy="326.99112"
       r="3.5" />
    <circle
       id="path3771-9-0"
       style="fill:#000000;fill-opacity:1;stroke:none;stroke-width:0.19599999"
       cx="-143.5961"
       cy="234.17003"
       r="3.5" />
    <path
       sodipodi:nodetypes="ccc"
       inkscape:connector-curvature="0"
       id="path3837-9"
       d="m -229.72164,327.27683 43.12501,-46.42858 43.125,-46.42857"
       style="fill:none;stroke:#000000;stroke-width:2;stroke-linecap:butt;stroke-linejoin:miter;stroke-miterlimit:4;stroke-dasharray:none;stroke-dashoffset:0;stroke-opacity:1;marker-mid:url(#marker1011)" />
    <path
       sodipodi:nodetypes="cssc"
       inkscape:connector-curvature="0"
       id="path2987-3-7"
       d="m 132.49093,81.338325 c 1.5186,-4.31585 13.04444,-21.81526 22.14492,-22.24011 57.41526,-2.68043 35.16082,59.949435 -2.1729,43.423135 -8.90508,-3.941972 -25.11072,-12.599645 -19.97202,-21.183025 z"
       style="fill:#000000;fill-opacity:0.19607843;stroke:#999999;stroke-width:1.41207242;stroke-linecap:butt;stroke-linejoin:miter;stroke-miterlimit:4;stroke-dasharray:5.64828979, 2.8241449;stroke-dashoffset:0;stroke-opacity:1" />
    <path
       sodipodi:nodetypes="cssc"
       inkscape:connector-curvature="0"
       id="path2993-5-5"
       d="m 102.61612,63.364615 c 6.29031,-22.16624 60.84637,-49.110641 79.10419,-41.85897 26.68119,10.59728 52.32924,42.67802 3.9324,108.688925 -19.86319,27.0924 -102.710117,-20.15954 -83.03659,-66.829955 z"
       style="fill:#000000;fill-opacity:0.19607843;stroke:#999999;stroke-width:1.41207242;stroke-linecap:butt;stroke-linejoin:miter;stroke-miterlimit:4;stroke-dasharray:5.64828979, 2.8241449;stroke-dashoffset:0;stroke-opacity:1" />
    <path
       sodipodi:nodetypes="cssssc"
       inkscape:connector-curvature="0"
       id="path2995-8-3"
       d="m 63.540818,58.672815 c 24.774384,-47.273689 61.380212,-62.7032521 90.413742,-69.215913 29.03352,-6.512652 64.98569,-7.983158 80.12391,27.608401 20.27789,47.675372 3.69763,69.147592 -17.23376,127.292097 -18.91762,52.55058 -82.70532,22.8069 -117.254521,0.66499 C 65.040985,122.88049 51.021078,83.990255 63.540818,58.672815 Z"
       style="fill:#000000;fill-opacity:0.19607843;stroke:#999999;stroke-width:1.41207242;stroke-linecap:butt;stroke-linejoin:miter;stroke-miterlimit:4;stroke-dasharray:5.64828979, 2.8241449;stroke-dashoffset:0;stroke-opacity:1" />
    <path
       sodipodi:nodetypes="csssscc"
       inkscape:connector-curvature="0"
       id="path2997-5-5"
       d="M 39.462079,117.94533 C 14.077197,67.115955 6.3191086,39.341235 48.659806,-0.91047412 69.076193,-20.319577 124.93405,-44.478031 169.36053,-51.380989 c 32.95339,-5.120276 58.45352,5.267755 90.67739,43.5717639 13.23279,15.729623 21.16379,51.5831501 23.69743,70.7879201 3.32774,25.22406 -28.80069,102.120565 -58.79144,130.434395 C 155.63878,260.0534 79.121523,189.2233 39.462079,117.94533 Z"
       style="fill:#000000;fill-opacity:0.19607843;stroke:#999999;stroke-width:1.41207242;stroke-linecap:butt;stroke-linejoin:miter;stroke-miterlimit:4;stroke-dasharray:5.64828979, 2.8241449;stroke-dashoffset:0;stroke-opacity:1" />
    <circle
       id="path3771-0-7"
       style="fill:#000000;fill-opacity:1;stroke:none;stroke-width:0.19599999"
       cx="163.46782"
       cy="83.319588"
       r="3.5" />
    <text
       id="text3773-99-9"
       y="101.26905"
       x="167.48491"
       style="font-style:normal;font-variant:normal;font-weight:normal;font-stretch:normal;line-height:0%;font-family:'Latin Modern Math';-inkscape-font-specification:'Latin Modern Math';letter-spacing:0px;word-spacing:0px;fill:#000000;fill-opacity:1;stroke:none"
       xml:space="preserve"><tspan
         style="font-style:normal;font-variant:normal;font-weight:normal;font-stretch:normal;font-size:32px;line-height:1.25;font-family:'Latin Modern Math';-inkscape-font-specification:'Latin Modern Math'"
         y="101.26905"
         x="167.48491"
         id="tspan3775-8-2"
         sodipodi:role="line">p<tspan
   style="font-size:64.99999762%;baseline-shift:sub"
   id="tspan3550">1</tspan></tspan></text>
    <circle
       id="path3771-9-0-0"
       style="fill:#000000;fill-opacity:1;stroke:none;stroke-width:0.19599999"
       cx="249.30763"
       cy="-9.5015182"
       r="3.5" />
    <text
       id="text3773-9-2-2"
       y="-0.50625229"
       x="257.43723"
       style="font-style:normal;font-variant:normal;font-weight:normal;font-stretch:normal;line-height:0%;font-family:'Latin Modern Math';-inkscape-font-specification:'Latin Modern Math';letter-spacing:0px;word-spacing:0px;fill:#000000;fill-opacity:1;stroke:none"
       xml:space="preserve"><tspan
         style="font-style:normal;font-variant:normal;font-weight:normal;font-stretch:normal;font-size:32px;line-height:1.25;font-family:'Latin Modern Math';-inkscape-font-specification:'Latin Modern Math'"
         y="-0.50625229"
         x="257.43723"
         id="tspan3775-9-4-3"
         sodipodi:role="line">p<tspan
   style="font-size:64.99999762%;baseline-shift:sub"
   id="tspan3552">1</tspan> + y - x</tspan></text>
    <path
       sodipodi:nodetypes="ccc"
       inkscape:connector-curvature="0"
       id="path3837-9-7"
       d="m 163.18206,83.605283 43.12502,-46.42858 43.125,-46.4285701"
       style="fill:none;stroke:#000000;stroke-width:2;stroke-linecap:butt;stroke-linejoin:miter;stroke-miterlimit:4;stroke-dasharray:none;stroke-dashoffset:0;stroke-opacity:1;marker-mid:url(#marker1011-1)" />
    <text
       id="text3773-99-9-5"
       y="487.13428"
       x="284.10938"
       style="font-style:normal;font-variant:normal;font-weight:normal;font-stretch:normal;line-height:0%;font-family:'Latin Modern Math';-inkscape-font-specification:'Latin Modern Math';letter-spacing:0px;word-spacing:0px;fill:#000000;fill-opacity:1;stroke:none"
       xml:space="preserve"><tspan
         style="font-style:normal;font-variant:normal;font-weight:normal;font-stretch:normal;font-size:32px;line-height:1.25;font-family:'Latin Modern Math';-inkscape-font-specification:'Latin Modern Math'"
         y="487.13428"
         x="284.10938"
         id="tspan3775-8-2-9"
         sodipodi:role="line">p<tspan
   style="font-size:64.99999762%;baseline-shift:sub"
   id="tspan3550-2">2</tspan></tspan></text>
    <text
       id="text3773-9-2-2-2"
       y="385.35895"
       x="374.06168"
       style="font-style:normal;font-variant:normal;font-weight:normal;font-stretch:normal;line-height:0%;font-family:'Latin Modern Math';-inkscape-font-specification:'Latin Modern Math';letter-spacing:0px;word-spacing:0px;fill:#000000;fill-opacity:1;stroke:none"
       xml:space="preserve"><tspan
         style="font-style:normal;font-variant:normal;font-weight:normal;font-stretch:normal;font-size:32px;line-height:1.25;font-family:'Latin Modern Math';-inkscape-font-specification:'Latin Modern Math'"
         y="385.35895"
         x="374.06168"
         id="tspan3775-9-4-3-8"
         sodipodi:role="line">p<tspan
   style="font-size:64.99999762%;baseline-shift:sub"
   id="tspan3552-9">2</tspan> + y - x</tspan></text>
    <text
       id="text3773-99-9-5-7"
       y="345.21753"
       x="-228.50366"
       style="font-style:normal;font-variant:normal;font-weight:normal;font-stretch:normal;line-height:0%;font-family:'Latin Modern Math';-inkscape-font-specification:'Latin Modern Math';letter-spacing:0px;word-spacing:0px;fill:#000000;fill-opacity:1;stroke:none"
       xml:space="preserve"><tspan
         style="font-style:normal;font-variant:normal;font-weight:normal;font-stretch:normal;font-size:32px;line-height:1.25;font-family:'Latin Modern Math';-inkscape-font-specification:'Latin Modern Math'"
         y="345.21753"
         x="-228.50366"
         id="tspan3775-8-2-9-3"
         sodipodi:role="line">p<tspan
   style="font-size:64.99999762%;baseline-shift:sub"
   id="tspan3550-2-6">3</tspan></tspan></text>
    <text
       id="text3773-9-2-2-2-1"
       y="243.44217"
       x="-138.55136"
       style="font-style:normal;font-variant:normal;font-weight:normal;font-stretch:normal;line-height:0%;font-family:'Latin Modern Math';-inkscape-font-specification:'Latin Modern Math';letter-spacing:0px;word-spacing:0px;fill:#000000;fill-opacity:1;stroke:none"
       xml:space="preserve"><tspan
         style="font-style:normal;font-variant:normal;font-weight:normal;font-stretch:normal;font-size:32px;line-height:1.25;font-family:'Latin Modern Math';-inkscape-font-specification:'Latin Modern Math'"
         y="243.44217"
         x="-138.55136"
         id="tspan3775-9-4-3-8-2"
         sodipodi:role="line">p<tspan
   style="font-size:64.99999762%;baseline-shift:sub"
   id="tspan3552-9-9">3</tspan> + y - x</tspan></text>
    <circle
       id="path3771-0-4"
       style="fill:#000000;fill-opacity:1;stroke:none;stroke-width:0.19599999"
       cx="66.110168"
       cy="333.18384"
       r="3.5" />
    <circle
       id="path3771-9-0-7"
       style="fill:#000000;fill-opacity:1;stroke:none;stroke-width:0.19599999"
       cx="151.94998"
       cy="240.36275"
       r="3.5" />
    <path
       sodipodi:nodetypes="ccc"
       inkscape:connector-curvature="0"
       id="path3837-9-8"
       d="m 65.824436,333.46954 43.125014,-46.42858 43.125,-46.42857"
       style="fill:none;stroke:#000000;stroke-width:2;stroke-linecap:butt;stroke-linejoin:miter;stroke-miterlimit:4;stroke-dasharray:none;stroke-dashoffset:0;stroke-opacity:1;marker-mid:url(#marker1011-31)" />
    <text
       id="text3773-99-9-5-7-4"
       y="360.64526"
       x="57.873619"
       style="font-style:normal;font-variant:normal;font-weight:normal;font-stretch:normal;line-height:0%;font-family:'Latin Modern Math';-inkscape-font-specification:'Latin Modern Math';letter-spacing:0px;word-spacing:0px;fill:#000000;fill-opacity:1;stroke:none"
       xml:space="preserve"><tspan
         style="font-style:normal;font-variant:normal;font-weight:normal;font-stretch:normal;font-size:32px;line-height:1.25;font-family:'Latin Modern Math';-inkscape-font-specification:'Latin Modern Math'"
         y="360.64526"
         x="57.873619"
         id="tspan3775-8-2-9-3-5"
         sodipodi:role="line">x</tspan></text>
    <text
       id="text3773-99-9-5-7-4-3"
       y="244.92456"
       x="162.76082"
       style="font-style:normal;font-variant:normal;font-weight:normal;font-stretch:normal;line-height:0%;font-family:'Latin Modern Math';-inkscape-font-specification:'Latin Modern Math';letter-spacing:0px;word-spacing:0px;fill:#000000;fill-opacity:1;stroke:none"
       xml:space="preserve"><tspan
         style="font-style:normal;font-variant:normal;font-weight:normal;font-stretch:normal;font-size:32px;line-height:1.25;font-family:'Latin Modern Math';-inkscape-font-specification:'Latin Modern Math'"
         y="244.92456"
         x="162.76082"
         id="tspan3775-8-2-9-3-5-6"
         sodipodi:role="line">y</tspan></text>
    <text
       xml:space="preserve"
       style="font-style:normal;font-weight:normal;font-size:40px;line-height:1.25;font-family:sans-serif;letter-spacing:0px;word-spacing:0px;fill:#000000;fill-opacity:1;stroke:none"
       x="70.458649"
       y="266.77328"
       id="text3790"><tspan
         sodipodi:role="line"
         id="tspan3788"
         x="70.458649"
         y="266.77328"
         style="font-size:64px">?</tspan></text>
    <g
       id="g3928"
       transform="matrix(1.3450244,0,0,1.3450244,-781.84158,412.80745)">
      <g
         id="g4439"
         transform="matrix(0.49245621,0,0,0.49245621,-258.58978,-13.039444)">
        <g
           word-spacing="normal"
           letter-spacing="normal"
           font-size-adjust="none"
           font-stretch="normal"
           font-weight="normal"
           font-variant="normal"
           font-style="normal"
           stroke-miterlimit="10.433"
           xml:space="preserve"
           transform="matrix(1.2939006,0,0,-1.2939006,-226.4326,689.27591)"
           id="g4437"
           style="font-style:normal;font-variant:normal;font-weight:normal;font-stretch:normal;letter-spacing:normal;word-spacing:normal;text-anchor:start;fill:none;fill-opacity:1;fill-rule:evenodd;stroke:#000000;stroke-linecap:butt;stroke-linejoin:miter;stroke-miterlimit:10.43299961;stroke-dasharray:none;stroke-dashoffset:0;stroke-opacity:1"><path
             id="path4381"
             d="m 915.09,376.63 0.05,0.16 0.04,0.16 0.04,0.15 0.03,0.14 0.04,0.14 0.05,0.13 0.04,0.12 0.05,0.12 0.05,0.11 0.05,0.1 0.06,0.09 0.07,0.1 0.07,0.08 0.08,0.08 0.09,0.07 0.09,0.07 0.11,0.06 0.11,0.06 0.13,0.05 0.14,0.05 0.15,0.05 0.16,0.04 0.08,0.01 0.09,0.02 0.1,0.02 0.09,0.01 0.11,0.01 0.1,0.02 0.11,0.01 0.11,0.01 0.12,0.01 0.12,0.01 h 0.12 l 0.13,0.01 0.14,0.01 h 0.14 l 0.14,0.01 h 0.15 0.15 0.16 l 0.16,0.01 h 0.17 c 1.3,0 1.69,0 1.69,1 0,0.54 -0.55,0.54 -0.7,0.54 -1.39,0 -4.97,-0.15 -6.38,-0.15 -1.44,0 -4.98,0.15 -6.42,0.15 -0.39,0 -0.95,0 -0.95,-1 0,-0.54 0.45,-0.54 1.4,-0.54 0.1,0 1.05,0 1.89,-0.1 0.89,-0.11 1.35,-0.15 1.35,-0.79 0,-0.21 -0.05,-0.32 -0.21,-0.96 l -2.98,-12.15 h -15.2 l 2.95,11.7 c 0.44,1.8 0.59,2.3 4.17,2.3 1.3,0 1.7,0 1.7,1 0,0.54 -0.54,0.54 -0.7,0.54 -1.39,0 -4.98,-0.15 -6.37,-0.15 -1.44,0 -4.99,0.15 -6.43,0.15 -0.4,0 -0.95,0 -0.95,-1 0,-0.54 0.45,-0.54 1.39,-0.54 0.11,0 1.05,0 1.91,-0.1 0.89,-0.11 1.34,-0.15 1.34,-0.79 0,-0.21 -0.06,-0.36 -0.2,-0.96 l -6.67,-26.75 c -0.5,-1.95 -0.61,-2.34 -4.55,-2.34 -0.89,0 -1.34,0 -1.34,-1 0,-0.55 0.6,-0.55 0.7,-0.55 1.39,0 4.94,0.16 6.33,0.16 1.04,0 2.14,-0.06 3.18,-0.06 1.1,0 2.19,-0.1 3.24,-0.1 0.41,0 1,0 1,1 0,0.55 -0.45,0.55 -1.39,0.55 -1.85,0 -3.24,0 -3.24,0.89 0,0.3 0.1,0.55 0.14,0.84 l 3.4,13.66 h 15.18 c -2.09,-8.27 -3.23,-13 -3.44,-13.75 -0.48,-1.59 -1.43,-1.64 -4.53,-1.64 -0.75,0 -1.18,0 -1.18,-1 0,-0.55 0.59,-0.55 0.68,-0.55 1.41,0 4.94,0.16 6.33,0.16 1.05,0 2.14,-0.06 3.19,-0.06 1.11,0 2.2,-0.1 3.25,-0.1 0.39,0 0.98,0 0.98,1 0,0.55 -0.43,0.55 -1.39,0.55 -1.84,0 -3.23,0 -3.23,0.89 0,0.3 0.09,0.55 0.14,0.84 z"
             inkscape:connector-curvature="0"
             style="fill:#000000;stroke-width:0" /><path
             id="path4383"
             d="m 939.04,334.49 v 0.02 0.03 0.01 0.02 l -0.01,0.01 v 0.02 l -0.01,0.02 v 0.01 l -0.01,0.02 -0.01,0.02 -0.01,0.03 -0.02,0.02 -0.01,0.02 -0.02,0.03 -0.02,0.03 -0.03,0.03 -0.02,0.04 -0.03,0.03 -0.02,0.02 -0.02,0.02 -0.01,0.02 -0.02,0.02 -0.02,0.02 -0.02,0.03 -0.02,0.02 -0.02,0.02 -0.03,0.03 -0.02,0.03 -0.02,0.02 -0.03,0.03 -0.03,0.03 -0.02,0.03 -0.03,0.03 -0.03,0.03 -0.03,0.03 -0.04,0.03 -0.03,0.04 -0.03,0.03 -0.04,0.04 -0.03,0.04 -0.04,0.03 -0.04,0.04 c -6.22,6.28 -7.81,15.69 -7.81,23.31 0,8.68 1.89,17.35 8.01,23.57 0.64,0.61 0.64,0.7 0.64,0.86 0,0.34 -0.19,0.48 -0.48,0.48 -0.5,0 -4.99,-3.37 -7.92,-9.7 -2.55,-5.49 -3.14,-11.02 -3.14,-15.21 0,-3.89 0.54,-9.9 3.28,-15.54 2.98,-6.13 7.28,-9.36 7.78,-9.36 0.29,0 0.48,0.14 0.48,0.5 z"
             inkscape:connector-curvature="0"
             style="fill:#000000;stroke-width:0" /><path
             id="path4385"
             d="m 966.09,365.43 0.01,0.03 0.01,0.03 0.02,0.06 0.01,0.05 0.02,0.06 0.01,0.05 0.01,0.05 0.01,0.04 0.01,0.05 0.01,0.04 0.01,0.04 0.01,0.03 0.01,0.04 v 0.03 l 0.01,0.03 v 0.04 l 0.01,0.02 v 0.03 l 0.01,0.03 v 0.06 l 0.01,0.05 v 0.05 0.05 0.06 0.03 0.02 0.03 0.04 c 0,0.9 -0.69,1.34 -1.44,1.34 -0.5,0 -1.29,-0.3 -1.75,-1.05 -0.09,-0.25 -0.5,-1.78 -0.68,-2.68 -0.36,-1.3 -0.71,-2.64 -1,-3.99 l -2.25,-8.97 c -0.19,-0.75 -2.33,-4.23 -5.63,-4.23 -2.53,0 -3.09,2.19 -3.09,4.03 0,2.3 0.86,5.39 2.54,9.77 0.8,2.04 1,2.59 1,3.59 0,2.23 -1.59,4.08 -4.09,4.08 -4.73,0 -6.58,-7.22 -6.58,-7.67 0,-0.5 0.5,-0.5 0.61,-0.5 0.5,0 0.55,0.1 0.8,0.9 1.34,4.69 3.33,6.17 5.03,6.17 0.39,0 1.25,0 1.25,-1.59 0,-1.25 -0.5,-2.53 -0.86,-3.48 -1.98,-5.29 -2.89,-8.13 -2.89,-10.47 0,-4.43 3.14,-5.93 6.08,-5.93 1.95,0 3.64,0.85 5.03,2.24 -0.64,-2.58 -1.24,-5.03 -3.24,-7.67 -1.29,-1.69 -3.18,-3.14 -5.48,-3.14 -0.69,0 -2.94,0.15 -3.78,2.09 0.8,0 1.45,0 2.14,0.61 0.5,0.44 1,1.09 1,2.03 0,1.55 -1.34,1.75 -1.84,1.75 -1.14,0 -2.8,-0.8 -2.8,-3.23 0,-2.5 2.2,-4.35 5.28,-4.35 5.14,0 10.27,4.55 11.67,10.17 z"
             inkscape:connector-curvature="0"
             style="fill:#000000;stroke-width:0" /><path
             id="path4387"
             d="m 978.26,346.49 v 0.3 l -0.01,0.3 -0.02,0.29 -0.02,0.28 -0.04,0.27 -0.03,0.27 -0.05,0.25 -0.05,0.25 -0.06,0.23 -0.06,0.23 -0.07,0.22 -0.08,0.21 -0.08,0.2 -0.09,0.2 -0.1,0.18 -0.1,0.17 -0.11,0.17 -0.11,0.15 -0.12,0.14 -0.12,0.14 -0.13,0.12 -0.13,0.11 -0.14,0.11 -0.14,0.09 -0.15,0.08 -0.16,0.07 -0.16,0.06 -0.16,0.05 -0.17,0.04 -0.17,0.03 -0.18,0.02 h -0.18 c -1.64,0 -2.64,-1.25 -2.64,-2.64 0,-1.34 1,-2.64 2.64,-2.64 0.6,0 1.25,0.2 1.75,0.64 0.15,0.11 0.21,0.16 0.25,0.16 0.05,0 0.1,-0.05 0.1,-0.75 0,-3.69 -1.74,-6.67 -3.39,-8.31 -0.55,-0.55 -0.55,-0.66 -0.55,-0.8 0,-0.36 0.25,-0.55 0.5,-0.55 0.55,0 4.53,3.83 4.53,9.66 z"
             inkscape:connector-curvature="0"
             style="fill:#000000;stroke-width:0" /><path
             id="path4389"
             d="m 1006.9,361.49 v 0.13 0.15 l 0.1,0.16 v 0.18 l 0.1,0.2 v 0.2 l 0.1,0.22 0.1,0.22 v 0.24 l 0.1,0.24 0.1,0.24 0.1,0.25 0.1,0.25 0.2,0.25 0.1,0.25 0.1,0.24 0.2,0.24 0.1,0.24 0.2,0.23 0.2,0.23 0.2,0.21 0.2,0.2 0.2,0.19 0.2,0.18 0.2,0.16 0.3,0.14 0.1,0.07 0.1,0.06 0.2,0.05 0.1,0.05 0.1,0.05 0.2,0.04 0.1,0.03 0.2,0.03 0.1,0.02 0.2,0.02 0.1,0.01 h 0.2 c 0.2,0 1.4,0 2.5,-0.64 -1.4,-0.25 -2.4,-1.5 -2.4,-2.68 0,-0.8 0.6,-1.75 1.9,-1.75 1.1,0 2.7,0.89 2.7,2.89 0,2.59 -3,3.28 -4.7,3.28 -2.8,0 -4.6,-2.64 -5.2,-3.78 -1.2,3.28 -3.9,3.78 -5.4,3.78 -5.15,0 -7.99,-6.42 -7.99,-7.67 0,-0.5 0.5,-0.5 0.61,-0.5 0.39,0 0.55,0.1 0.64,0.54 1.69,5.28 4.99,6.53 6.64,6.53 1,0 2.7,-0.43 2.7,-3.32 0,-1.55 -0.8,-4.9 -2.7,-11.86 -0.8,-3.1 -2.5,-5.19 -4.7,-5.19 -0.3,0 -1.44,0 -2.49,0.65 1.25,0.24 2.35,1.29 2.35,2.69 0,1.35 -1.1,1.74 -1.85,1.74 -1.5,0 -2.75,-1.3 -2.75,-2.89 0,-2.29 2.5,-3.29 4.69,-3.29 3.3,0 5.05,3.49 5.25,3.79 0.6,-1.85 2.4,-3.79 5.4,-3.79 5.1,0 8,6.43 8,7.68 0,0.5 -0.5,0.5 -0.7,0.5 -0.4,0 -0.5,-0.21 -0.6,-0.55 -1.7,-5.33 -5,-6.53 -6.6,-6.53 -2,0 -2.8,1.59 -2.8,3.3 0,1.09 0.3,2.18 0.9,4.37 z"
             inkscape:connector-curvature="0"
             style="fill:#000000;stroke-width:0" /><path
             id="path4391"
             d="m 1033.1,358.89 -0.1,0.38 v 0.38 0.39 0.41 0.84 l -0.1,0.88 -0.1,0.92 -0.1,0.95 -0.1,0.98 -0.2,1 -0.2,1.02 -0.2,1.04 -0.3,1.05 -0.3,1.06 -0.3,1.06 -0.4,1.07 -0.2,0.53 -0.2,0.53 -0.3,0.53 -0.2,0.53 c -3,6.13 -7.3,9.36 -7.8,9.36 -0.3,0 -0.5,-0.19 -0.5,-0.48 0,-0.16 0,-0.25 1,-1.16 4.8,-4.92 7.7,-12.84 7.7,-23.27 0,-8.51 -1.9,-17.28 -8,-23.56 -0.7,-0.59 -0.7,-0.7 -0.7,-0.84 0,-0.3 0.2,-0.5 0.5,-0.5 0.5,0 5,3.39 7.9,9.72 2.6,5.47 3.2,11 3.2,15.18 z"
             inkscape:connector-curvature="0"
             style="fill:#000000;stroke-width:0" /><path
             id="path4393"
             d="m 1087.9,368.96 v 0.09 0.1 0.09 0.08 l -0.1,0.08 v 0.08 0.08 0.07 0.07 0.07 0.06 l -0.1,0.06 v 0.06 0.05 0.05 0.05 l -0.1,0.04 v 0.05 0.03 0.04 l -0.1,0.03 v 0.03 0.03 l -0.1,0.02 v 0.02 0.02 l -0.1,0.01 v 0.02 0 l -0.1,0.01 v 0.01 0 c -0.2,0 -0.7,-0.21 -0.7,-1.35 -0.2,-3.43 -3.7,-5.48 -6.9,-5.48 -2.9,0 -5.4,1.55 -8,3.3 -2.7,1.78 -5.4,3.57 -8.6,3.57 -4.7,0 -8.4,-3.53 -8.4,-8.12 0,-1.09 0.4,-1.49 0.7,-1.49 0.5,0 0.7,0.94 0.7,1.15 0.3,4.18 4.4,5.68 7,5.68 2.9,0 5.3,-1.54 7.9,-3.29 2.7,-1.8 5.4,-3.6 8.7,-3.6 4.6,0 8.3,3.55 8.3,8.13 z"
             inkscape:connector-curvature="0"
             style="fill:#000000;stroke-width:0" /><path
             id="path4395"
             d="m 1087.9,357.3 v 0.07 0.06 0.07 0.06 0.06 0.05 0.06 l -0.1,0.05 v 0.06 0.05 0.05 0.04 0.05 0.04 0.04 0.05 0.03 0.04 l -0.1,0.04 v 0.03 0.04 0.03 0.03 0.03 0.03 0.02 l -0.1,0.05 v 0.05 0.04 l -0.1,0.04 v 0.03 0.03 l -0.1,0.02 v 0.02 0.02 0.02 l -0.1,0.01 v 0.01 0.01 0.01 h -0.1 v 0 0.01 0 0 c -0.2,0 -0.7,-0.25 -0.7,-1.35 -0.2,-3.43 -3.7,-5.48 -6.9,-5.48 -2.9,0 -5.4,1.55 -8,3.3 -2.7,1.78 -5.4,3.57 -8.6,3.57 -4.7,0 -8.4,-3.53 -8.4,-8.12 0,-1.09 0.4,-1.48 0.7,-1.48 0.5,0 0.7,0.93 0.7,1.14 0.3,4.18 4.4,5.68 7,5.68 2.9,0 5.3,-1.54 7.9,-3.29 2.7,-1.8 5.4,-3.58 8.7,-3.58 4.7,0 8.3,3.69 8.3,8.06 z"
             inkscape:connector-curvature="0"
             style="fill:#000000;stroke-width:0" /><path
             id="path4397"
             d="m 1167.7,323.97 6,15.94 h -1.2 c -2,-5.18 -7.3,-8.57 -13,-10.07 -1,-0.25 -5.9,-1.54 -15.5,-1.54 h -30 l 25.3,29.75 c 0.4,0.39 0.5,0.54 0.5,0.79 0,0.1 0,0.25 -0.4,0.75 l -23.2,31.74 h 27.3 c 6.7,0 11.2,-0.71 11.7,-0.8 2.7,-0.41 7,-1.25 10.9,-3.73 1.3,-0.8 4.7,-3.05 6.4,-7.08 h 1.2 l -6,14 h -58.9 c -1.1,0 -1.2,-0.05 -1.4,-0.34 0,-0.16 0,-1.1 0,-1.66 l 26.3,-36.06 -25.8,-30.25 c -0.5,-0.6 -0.5,-0.85 -0.5,-0.89 0,-0.55 0.5,-0.55 1.4,-0.55 z"
             inkscape:connector-curvature="0"
             style="fill:#000000;stroke-width:0" /><path
             id="path4399"
             d="m 1144.8,309.42 v 0.05 0.06 0.05 0.06 0.05 0.06 0.05 l -0.1,0.06 v 0.06 0.05 0.06 l -0.1,0.05 v 0.06 0.05 l -0.1,0.05 v 0.05 l -0.1,0.05 v 0.05 l -0.1,0.04 v 0.04 l -0.1,0.04 v 0.04 l -0.1,0.04 -0.1,0.03 v 0.03 l -0.1,0.02 -0.1,0.03 v 0.02 l -0.1,0.01 -0.1,0.01 -0.1,0.01 h -0.1 c -0.9,0 -1.9,-0.91 -1.9,-1.92 0,-0.6 0.4,-1.33 1.4,-1.33 1,0 1.9,0.98 1.9,1.92 z"
             inkscape:connector-curvature="0"
             style="fill:#000000;stroke-width:0" /><path
             id="path4401"
             d="m 1137.7,291.72 v -0.09 -0.08 l -0.1,-0.17 v -0.08 l -0.1,-0.09 v -0.08 -0.09 -0.09 -0.09 l -0.1,-0.1 v -0.09 -0.05 -0.05 -0.05 -0.05 -0.06 -0.05 -0.05 -0.06 c 0,-1.64 1.4,-2.95 3.3,-2.95 3.5,0 5,4.79 5,5.32 0,0.46 -0.4,0.46 -0.5,0.46 -0.5,0 -0.6,-0.2 -0.7,-0.6 -0.8,-2.78 -2.3,-4.21 -3.7,-4.21 -0.7,0 -0.9,0.45 -0.9,1.21 0,0.8 0.3,1.47 0.6,2.24 0.3,0.94 0.7,1.87 1.1,2.78 0.3,0.84 1.6,4.02 1.7,4.44 0.1,0.34 0.2,0.76 0.2,1.11 0,1.64 -1.4,2.95 -3.3,2.95 -3.4,0 -5,-4.73 -5,-5.33 0,-0.45 0.4,-0.45 0.6,-0.45 0.4,0 0.5,0.17 0.6,0.56 0.9,3 2.4,4.25 3.7,4.25 0.6,0 0.9,-0.28 0.9,-1.22 0,-0.79 -0.2,-1.33 -1.1,-3.48 z"
             inkscape:connector-curvature="0"
             style="fill:#000000;stroke-width:0" /><path
             id="path4403"
             d="m 1207.8,363.33 v 0.11 0.11 l 0.1,0.11 v 0.11 0.12 0.12 l 0.1,0.25 0.1,0.25 v 0.25 l 0.1,0.25 v 0.24 l 0.1,0.12 v 0.11 0.11 l 0.1,0.11 v 0.11 0.1 0.09 0.09 l 0.1,0.08 v 0.08 0.07 0.07 0.05 0.05 0.04 0.04 c 0,0.9 -0.7,1.34 -1.4,1.34 -0.6,0 -1.5,-0.39 -1.9,-1.39 -0.1,-0.34 -2.4,-9.86 -2.8,-11.16 -0.4,-1.5 -0.5,-2.39 -0.5,-3.29 0,-0.55 0,-0.64 0.1,-0.89 -1.1,-2.64 -2.6,-4.19 -4.6,-4.19 -4,0 -4,3.69 -4,4.53 0,1.59 0.3,3.55 2.6,9.67 0.6,1.49 0.9,2.19 0.9,3.19 0,2.23 -1.7,4.08 -4.1,4.08 -4.8,0 -6.6,-7.22 -6.6,-7.67 0,-0.5 0.5,-0.5 0.6,-0.5 0.5,0 0.6,0.1 0.8,0.9 1.3,4.63 3.3,6.17 5,6.17 0.5,0 1.3,-0.04 1.3,-1.64 0,-1.25 -0.6,-2.64 -0.9,-3.48 -2.2,-5.88 -2.8,-8.17 -2.8,-10.06 0,-4.54 3.3,-6.29 7.1,-6.29 0.8,0 3.1,0 5.1,3.49 1.4,-3.19 4.8,-3.49 6.3,-3.49 3.7,0 5.9,3.15 7.2,6.13 1.7,3.89 3.3,10.56 3.3,12.95 0,2.75 -1.4,3.49 -2.2,3.49 -1.2,0 -2.5,-1.3 -2.5,-2.39 0,-0.64 0.3,-0.94 0.7,-1.35 0.6,-0.54 1.8,-1.84 1.8,-4.23 0,-1.69 -1.4,-6.58 -2.7,-9.11 -1.3,-2.64 -3,-4.39 -5.5,-4.39 -2.3,0 -3.7,1.5 -3.7,4.33 0,1.4 0.4,2.95 0.6,3.64 z"
             inkscape:connector-curvature="0"
             style="fill:#000000;stroke-width:0" /><path
             id="path4405"
             d="m 1231.7,360.66 v 0.05 0.06 0.05 0.05 0.06 0.06 l -0.1,0.05 v 0.06 0.05 0.06 l -0.1,0.06 v 0.05 0.05 l -0.1,0.06 v 0.05 0.05 l -0.1,0.05 v 0.04 l -0.1,0.05 v 0.04 l -0.1,0.04 v 0.04 l -0.1,0.04 -0.1,0.03 v 0.03 l -0.1,0.02 -0.1,0.02 -0.1,0.02 v 0.02 l -0.1,0.01 -0.1,0.01 h -0.1 c -1,0 -2,-0.91 -2,-1.92 0,-0.6 0.5,-1.33 1.4,-1.33 1,0 2,0.98 2,1.92 z"
             inkscape:connector-curvature="0"
             style="fill:#000000;stroke-width:0" /><path
             id="path4407"
             d="m 1224.6,342.96 v -0.09 l -0.1,-0.08 v -0.17 -0.08 l -0.1,-0.09 v -0.09 -0.08 -0.09 l -0.1,-0.1 v -0.09 -0.1 -0.04 -0.05 -0.06 -0.05 -0.05 -0.05 -0.06 -0.05 c 0,-1.64 1.4,-2.95 3.3,-2.95 3.5,0 5,4.79 5,5.32 0,0.46 -0.4,0.46 -0.6,0.46 -0.4,0 -0.5,-0.21 -0.6,-0.6 -0.8,-2.78 -2.4,-4.22 -3.7,-4.22 -0.7,0 -0.9,0.46 -0.9,1.22 0,0.8 0.3,1.47 0.6,2.24 0.3,0.93 0.7,1.87 1.1,2.78 0.3,0.84 1.6,4.01 1.7,4.44 0.1,0.34 0.2,0.76 0.2,1.11 0,1.64 -1.4,2.95 -3.3,2.95 -3.5,0 -5.1,-4.74 -5.1,-5.33 0,-0.45 0.5,-0.45 0.6,-0.45 0.5,0 0.6,0.17 0.7,0.56 0.9,3 2.4,4.25 3.7,4.25 0.5,0 0.8,-0.28 0.8,-1.22 0,-0.8 -0.1,-1.33 -1,-3.48 z"
             inkscape:connector-curvature="0"
             style="fill:#000000;stroke-width:0" /><path
             id="path4409"
             d="m 1275.1,376.63 v 0.16 l 0.1,0.16 v 0.15 l 0.1,0.14 v 0.14 0.13 l 0.1,0.12 v 0.12 l 0.1,0.11 v 0.1 l 0.1,0.09 0.1,0.1 v 0.08 l 0.1,0.08 0.1,0.07 0.1,0.07 0.1,0.06 0.1,0.06 0.1,0.05 0.2,0.05 0.1,0.05 0.2,0.04 0.1,0.01 0.1,0.02 0.1,0.02 0.1,0.01 0.1,0.01 0.1,0.02 0.1,0.01 0.1,0.01 0.1,0.01 0.1,0.01 h 0.1 l 0.2,0.01 0.1,0.01 h 0.1 l 0.2,0.01 h 0.1 0.2 0.1 l 0.2,0.01 h 0.2 c 1.3,0 1.7,0 1.7,1 0,0.54 -0.6,0.54 -0.7,0.54 -1.4,0 -5,-0.15 -6.4,-0.15 -1.5,0 -5,0.15 -6.4,0.15 -0.4,0 -1,0 -1,-1 0,-0.54 0.5,-0.54 1.4,-0.54 0.1,0 1.1,0 1.9,-0.1 0.9,-0.11 1.4,-0.15 1.4,-0.79 0,-0.21 -0.1,-0.32 -0.3,-0.96 l -2.9,-12.15 h -15.2 l 2.9,11.7 c 0.5,1.8 0.6,2.3 4.2,2.3 1.3,0 1.7,0 1.7,1 0,0.54 -0.5,0.54 -0.7,0.54 -1.4,0 -5,-0.15 -6.4,-0.15 -1.4,0 -5,0.15 -6.4,0.15 -0.4,0 -1,0 -1,-1 0,-0.54 0.5,-0.54 1.4,-0.54 0.1,0 1.1,0 1.9,-0.1 0.9,-0.11 1.4,-0.15 1.4,-0.79 0,-0.21 -0.1,-0.36 -0.2,-0.96 l -6.7,-26.75 c -0.5,-1.95 -0.6,-2.34 -4.5,-2.34 -0.9,0 -1.4,0 -1.4,-1 0,-0.55 0.6,-0.55 0.7,-0.55 1.4,0 5,0.16 6.4,0.16 1,0 2.1,-0.06 3.1,-0.06 1.1,0 2.2,-0.1 3.3,-0.1 0.4,0 1,0 1,1 0,0.55 -0.5,0.55 -1.4,0.55 -1.9,0 -3.3,0 -3.3,0.89 0,0.3 0.1,0.55 0.2,0.84 l 3.4,13.66 h 15.2 c -2.1,-8.27 -3.3,-13 -3.5,-13.75 -0.5,-1.59 -1.4,-1.64 -4.5,-1.64 -0.8,0 -1.2,0 -1.2,-1 0,-0.55 0.6,-0.55 0.7,-0.55 1.4,0 4.9,0.16 6.3,0.16 1.1,0 2.2,-0.06 3.2,-0.06 1.1,0 2.2,-0.1 3.3,-0.1 0.3,0 0.9,0 0.9,1 0,0.55 -0.4,0.55 -1.4,0.55 -1.8,0 -3.2,0 -3.2,0.89 0,0.3 0.1,0.55 0.2,0.84 z"
             inkscape:connector-curvature="0"
             style="fill:#000000;stroke-width:0" /><path
             id="path4411"
             d="m 1299,334.49 v 0.02 0.03 0.01 0.02 0.01 0.02 0.02 0.01 0.02 0.02 0.03 0.02 0.02 l -0.1,0.03 v 0.03 0.03 0.04 l -0.1,0.03 v 0.02 0.02 0.02 0.02 l -0.1,0.02 v 0.03 0.02 0.02 0.03 l -0.1,0.03 v 0.02 0.03 0.03 l -0.1,0.03 v 0.03 0.03 l -0.1,0.03 v 0.03 0.04 l -0.1,0.03 v 0.04 0.04 l -0.1,0.03 v 0.04 c -6.2,6.28 -7.8,15.69 -7.8,23.31 0,8.68 1.9,17.35 8,23.57 0.6,0.61 0.6,0.7 0.6,0.86 0,0.34 -0.1,0.48 -0.4,0.48 -0.5,0 -5,-3.37 -8,-9.7 -2.5,-5.49 -3.1,-11.02 -3.1,-15.21 0,-3.89 0.5,-9.9 3.3,-15.54 3,-6.13 7.3,-9.36 7.8,-9.36 0.3,0 0.4,0.14 0.4,0.5 z"
             inkscape:connector-curvature="0"
             style="fill:#000000;stroke-width:0" /><path
             id="path4413"
             d="m 1304.1,340.36 v -0.15 l -0.1,-0.15 v -0.14 -0.13 l -0.1,-0.12 v -0.12 -0.11 l -0.1,-0.11 v -0.1 -0.09 l -0.1,-0.09 v -0.08 l -0.1,-0.07 v -0.07 l -0.1,-0.06 -0.1,-0.06 v -0.06 l -0.1,-0.05 -0.1,-0.04 -0.1,-0.04 -0.1,-0.04 -0.1,-0.03 -0.1,-0.03 -0.1,-0.02 -0.1,-0.02 -0.1,-0.01 v -0.01 l -0.1,-0.01 h -0.1 l -0.1,-0.01 v -0.01 h -0.1 -0.1 l -0.1,-0.01 h -0.1 -0.1 -0.1 -0.1 -0.1 c -0.6,0 -1.1,0 -1.1,-0.94 0,-0.41 0.2,-0.61 0.6,-0.61 1.4,0 2.8,0.16 4.2,0.16 1.7,0 3.3,-0.16 5,-0.16 0.2,0 0.8,0 0.8,1 0,0.55 -0.5,0.55 -1.1,0.55 -2.6,0 -2.6,0.36 -2.6,0.79 0,0.61 2.1,8.72 2.5,9.97 0.6,-1.44 2,-3.19 4.6,-3.19 l -0.1,1.1 c -3.3,0 -3.9,4.14 -3.9,4.44 0,0.09 0,0.2 0.1,0.79 l 2.5,9.77 c 0.3,1.34 1.7,2.73 2.6,3.48 1.7,1.55 3.2,1.89 4,1.89 2,0 3.2,-1.73 3.2,-4.68 0,-2.94 -1.6,-8.66 -2.5,-10.57 -1.7,-3.48 -4.1,-5.12 -6,-5.12 l 0.1,-1.1 c 5.8,0 12,7.27 12,14.6 0,4.69 -2.9,7.97 -6.6,7.97 -2.5,0 -4.9,-1.78 -6.6,-3.74 -0.5,2.69 -2.6,3.74 -4.4,3.74 -2.3,0 -3.3,-1.94 -3.7,-2.83 -0.9,-1.7 -1.6,-4.69 -1.6,-4.84 0,-0.5 0.5,-0.5 0.6,-0.5 0.5,0 0.6,0.06 0.9,1.15 0.8,3.53 1.8,5.92 3.6,5.92 0.8,0 1.6,-0.39 1.6,-2.28 0,-1.15 -0.2,-1.7 -0.4,-2.54 z"
             inkscape:connector-curvature="0"
             style="fill:#000000;stroke-width:0" /><path
             id="path4415"
             d="m 1338.3,360.66 v 0.05 0.06 l -0.1,0.05 v 0.05 0.06 0.06 0.05 0.06 0.05 l -0.1,0.06 v 0.06 0.05 l -0.1,0.05 v 0.06 0.05 l -0.1,0.05 v 0.05 l -0.1,0.04 v 0.05 l -0.1,0.04 v 0.04 l -0.1,0.04 v 0.04 l -0.1,0.03 -0.1,0.03 -0.1,0.02 v 0.02 l -0.1,0.02 -0.1,0.02 -0.1,0.01 -0.1,0.01 h -0.1 c -0.9,0 -1.9,-0.91 -1.9,-1.92 0,-0.6 0.4,-1.33 1.4,-1.33 1,0 2,0.98 2,1.92 z"
             inkscape:connector-curvature="0"
             style="fill:#000000;stroke-width:0" /><path
             id="path4417"
             d="m 1331.2,342.96 -0.1,-0.17 -0.1,-0.17 v -0.08 -0.09 -0.09 l -0.1,-0.08 v -0.09 -0.1 -0.09 -0.1 -0.09 -0.06 l -0.1,-0.05 v -0.05 -0.05 -0.06 -0.05 c 0,-1.64 1.4,-2.95 3.3,-2.95 3.5,0 5.1,4.79 5.1,5.32 0,0.46 -0.5,0.46 -0.6,0.46 -0.5,0 -0.5,-0.21 -0.7,-0.6 -0.8,-2.78 -2.3,-4.22 -3.7,-4.22 -0.7,0 -0.8,0.46 -0.8,1.22 0,0.8 0.2,1.47 0.5,2.24 0.4,0.93 0.8,1.87 1.1,2.78 0.3,0.84 1.6,4.01 1.8,4.44 0,0.34 0.2,0.76 0.2,1.11 0,1.64 -1.4,2.95 -3.3,2.95 -3.5,0 -5.1,-4.74 -5.1,-5.33 0,-0.45 0.5,-0.45 0.6,-0.45 0.5,0 0.5,0.17 0.6,0.56 0.9,3 2.5,4.25 3.7,4.25 0.6,0 0.9,-0.28 0.9,-1.22 0,-0.8 -0.2,-1.33 -1.1,-3.48 z"
             inkscape:connector-curvature="0"
             style="fill:#000000;stroke-width:0" /><path
             id="path4419"
             d="m 1374.9,357.89 h 13.9 c 0.7,0 1.7,0 1.7,1 0,1 -1,1 -1.7,1 h -13.9 v 13.96 c 0,0.69 0,1.64 -1,1.64 -1,0 -1,-0.95 -1,-1.64 V 359.89 H 1359 c -0.7,0 -1.6,0 -1.6,-1 0,-1 0.9,-1 1.6,-1 h 13.9 v -13.93 c 0,-0.71 0,-1.66 1,-1.66 1,0 1,0.95 1,1.66 z"
             inkscape:connector-curvature="0"
             style="fill:#000000;stroke-width:0" /><path
             id="path4421"
             d="m 1428.6,365.43 v 0.03 0.03 0.06 0.05 0.06 l 0.1,0.05 v 0.05 0.04 0.05 0.04 0.04 0.03 0.04 0.03 0.03 0.04 0.02 l 0.1,0.03 v 0.03 0.06 0.05 0.05 0.05 0.06 0.03 0.02 0.03 0.04 c 0,0.9 -0.7,1.34 -1.5,1.34 -0.5,0 -1.3,-0.3 -1.7,-1.05 -0.1,-0.25 -0.5,-1.78 -0.7,-2.68 -0.4,-1.3 -0.7,-2.64 -1,-3.99 l -2.3,-8.97 c -0.2,-0.75 -2.3,-4.23 -5.6,-4.23 -2.5,0 -3.1,2.19 -3.1,4.03 0,2.3 0.9,5.39 2.6,9.77 0.8,2.04 1,2.59 1,3.59 0,2.23 -1.6,4.08 -4.1,4.08 -4.8,0 -6.6,-7.22 -6.6,-7.67 0,-0.5 0.5,-0.5 0.6,-0.5 0.5,0 0.5,0.1 0.8,0.9 1.4,4.69 3.3,6.17 5,6.17 0.4,0 1.3,0 1.3,-1.59 0,-1.25 -0.5,-2.53 -0.9,-3.48 -2,-5.29 -2.9,-8.13 -2.9,-10.47 0,-4.43 3.2,-5.93 6.1,-5.93 2,0 3.6,0.85 5,2.24 -0.6,-2.58 -1.2,-5.03 -3.2,-7.67 -1.3,-1.69 -3.2,-3.14 -5.5,-3.14 -0.7,0 -2.9,0.15 -3.8,2.09 0.8,0 1.5,0 2.2,0.61 0.5,0.44 1,1.09 1,2.03 0,1.55 -1.4,1.75 -1.9,1.75 -1.1,0 -2.8,-0.8 -2.8,-3.23 0,-2.5 2.3,-4.35 5.3,-4.35 5.2,0 10.3,4.55 11.7,10.17 z"
             inkscape:connector-curvature="0"
             style="fill:#000000;stroke-width:0" /><path
             id="path4423"
             d="m 1474.5,357.89 0.2,0.01 h 0.1 0.2 l 0.1,0.01 v 0 l 0.1,0.01 0.1,0.01 0.1,0.01 v 0.01 l 0.1,0.01 0.1,0.02 V 358 l 0.1,0.02 0.1,0.02 v 0.03 l 0.1,0.03 v 0.04 l 0.1,0.04 v 0.04 l 0.1,0.05 v 0.05 0.02 0.03 0.03 l 0.1,0.03 v 0.03 0.04 0.03 0.03 0.04 0.04 0.04 0.04 0.04 0.04 0.05 0.04 c 0,1 -0.9,1 -1.7,1 h -26.9 c -0.9,0 -1.8,0 -1.8,-1 0,-1 0.9,-1 1.8,-1 z"
             inkscape:connector-curvature="0"
             style="fill:#000000;stroke-width:0" /><path
             id="path4425"
             d="m 1508.1,361.49 v 0.13 l 0.1,0.15 v 0.16 l 0.1,0.18 v 0.2 l 0.1,0.2 v 0.22 l 0.1,0.22 0.1,0.24 0.1,0.24 0.1,0.24 0.1,0.25 0.1,0.25 0.1,0.25 0.1,0.25 0.2,0.24 0.1,0.24 0.2,0.24 0.2,0.23 0.1,0.23 0.2,0.21 0.2,0.2 0.2,0.19 0.2,0.18 0.3,0.16 0.2,0.14 0.1,0.07 0.2,0.06 0.1,0.05 0.1,0.05 0.2,0.05 0.1,0.04 0.2,0.03 0.1,0.03 0.2,0.02 0.1,0.02 0.2,0.01 h 0.2 c 0.2,0 1.4,0 2.4,-0.64 -1.4,-0.25 -2.4,-1.5 -2.4,-2.68 0,-0.8 0.6,-1.75 1.9,-1.75 1.1,0 2.7,0.89 2.7,2.89 0,2.59 -2.9,3.28 -4.6,3.28 -2.9,0 -4.6,-2.64 -5.2,-3.78 -1.3,3.28 -4,3.78 -5.4,3.78 -5.2,0 -8,-6.42 -8,-7.67 0,-0.5 0.5,-0.5 0.6,-0.5 0.4,0 0.5,0.1 0.6,0.54 1.7,5.28 5,6.53 6.7,6.53 0.9,0 2.7,-0.43 2.7,-3.32 0,-1.55 -0.9,-4.9 -2.7,-11.86 -0.8,-3.1 -2.6,-5.19 -4.8,-5.19 -0.3,0 -1.4,0 -2.4,0.65 1.2,0.24 2.3,1.29 2.3,2.69 0,1.35 -1.1,1.74 -1.8,1.74 -1.5,0 -2.8,-1.3 -2.8,-2.89 0,-2.29 2.5,-3.29 4.7,-3.29 3.3,0 5.1,3.49 5.2,3.79 0.6,-1.85 2.4,-3.79 5.4,-3.79 5.1,0 8,6.43 8,7.68 0,0.5 -0.5,0.5 -0.6,0.5 -0.5,0 -0.6,-0.21 -0.7,-0.55 -1.6,-5.33 -5,-6.53 -6.6,-6.53 -1.9,0 -2.7,1.59 -2.7,3.3 0,1.09 0.3,2.18 0.8,4.37 z"
             inkscape:connector-curvature="0"
             style="fill:#000000;stroke-width:0" /><path
             id="path4427"
             d="m 1530,346.49 v 0.3 0.3 0.29 0.28 l -0.1,0.27 v 0.27 l -0.1,0.25 v 0.25 l -0.1,0.23 v 0.23 l -0.1,0.22 -0.1,0.21 -0.1,0.2 v 0.2 l -0.1,0.18 -0.1,0.17 -0.1,0.17 -0.2,0.15 -0.1,0.14 -0.1,0.14 -0.1,0.12 -0.2,0.11 -0.1,0.11 -0.1,0.09 -0.2,0.08 -0.1,0.07 -0.2,0.06 -0.2,0.05 -0.1,0.04 -0.2,0.03 -0.2,0.02 h -0.2 c -1.6,0 -2.6,-1.25 -2.6,-2.64 0,-1.34 1,-2.64 2.6,-2.64 0.6,0 1.3,0.2 1.8,0.64 0.1,0.11 0.2,0.16 0.2,0.16 0.1,0 0.1,-0.05 0.1,-0.75 0,-3.69 -1.7,-6.67 -3.4,-8.31 -0.5,-0.55 -0.5,-0.66 -0.5,-0.8 0,-0.36 0.2,-0.55 0.5,-0.55 0.5,0 4.5,3.83 4.5,9.66 z"
             inkscape:connector-curvature="0"
             style="fill:#000000;stroke-width:0" /><path
             id="path4429"
             d="m 1544.2,340.36 v -0.15 l -0.1,-0.15 v -0.14 -0.13 l -0.1,-0.12 v -0.12 -0.11 l -0.1,-0.11 v -0.1 -0.09 l -0.1,-0.09 v -0.08 l -0.1,-0.07 v -0.07 l -0.1,-0.06 v -0.06 l -0.1,-0.06 -0.1,-0.05 -0.1,-0.04 v -0.04 l -0.1,-0.04 -0.1,-0.03 -0.2,-0.03 -0.1,-0.02 -0.1,-0.02 -0.1,-0.01 v -0.01 l -0.1,-0.01 h -0.1 l -0.1,-0.01 v -0.01 h -0.1 -0.1 l -0.1,-0.01 h -0.1 -0.1 -0.1 -0.1 -0.1 c -0.6,0 -1.1,0 -1.1,-0.94 0,-0.41 0.2,-0.61 0.6,-0.61 1.4,0 2.8,0.16 4.2,0.16 1.7,0 3.4,-0.16 5,-0.16 0.2,0 0.9,0 0.9,1 0,0.55 -0.5,0.55 -1.2,0.55 -2.5,0 -2.5,0.36 -2.5,0.79 0,0.61 2.1,8.72 2.4,9.97 0.7,-1.44 2,-3.19 4.6,-3.19 l -0.1,1.1 c -3.2,0 -3.9,4.14 -3.9,4.44 0,0.09 0,0.2 0.2,0.79 l 2.4,9.77 c 0.3,1.34 1.7,2.73 2.6,3.48 1.7,1.55 3.2,1.89 4,1.89 2,0 3.2,-1.73 3.2,-4.68 0,-2.94 -1.6,-8.66 -2.5,-10.57 -1.7,-3.48 -4.1,-5.12 -6,-5.12 l 0.1,-1.1 c 5.8,0 12,7.27 12,14.6 0,4.69 -2.8,7.97 -6.6,7.97 -2.5,0 -4.9,-1.78 -6.6,-3.74 -0.4,2.69 -2.6,3.74 -4.4,3.74 -2.3,0 -3.3,-1.94 -3.7,-2.83 -0.9,-1.7 -1.6,-4.69 -1.6,-4.84 0,-0.5 0.5,-0.5 0.6,-0.5 0.5,0 0.6,0.06 0.9,1.15 0.8,3.53 1.8,5.92 3.6,5.92 0.9,0 1.6,-0.39 1.6,-2.28 0,-1.15 -0.2,-1.7 -0.4,-2.54 z"
             inkscape:connector-curvature="0"
             style="fill:#000000;stroke-width:0" /><path
             id="path4431"
             d="m 1578.4,360.66 v 0.05 0.06 0.05 0.05 l -0.1,0.06 v 0.06 0.05 0.06 0.05 0.06 l -0.1,0.06 v 0.05 0.05 l -0.1,0.06 v 0.05 l -0.1,0.05 v 0.05 0.04 l -0.1,0.05 -0.1,0.04 v 0.04 l -0.1,0.04 v 0.04 l -0.1,0.03 -0.1,0.03 v 0.02 l -0.1,0.02 -0.1,0.02 -0.1,0.02 -0.1,0.01 v 0.01 h -0.1 c -1,0 -2,-0.91 -2,-1.92 0,-0.6 0.5,-1.33 1.4,-1.33 1,0 2,0.98 2,1.92 z"
             inkscape:connector-curvature="0"
             style="fill:#000000;stroke-width:0" /><path
             id="path4433"
             d="m 1571.3,342.96 -0.1,-0.09 v -0.08 -0.17 l -0.1,-0.08 v -0.09 -0.09 -0.08 l -0.1,-0.09 v -0.1 -0.09 -0.1 -0.04 -0.05 -0.06 -0.05 -0.05 -0.05 -0.06 l -0.1,-0.05 c 0,-1.64 1.4,-2.95 3.3,-2.95 3.5,0 5.1,4.79 5.1,5.32 0,0.46 -0.5,0.46 -0.6,0.46 -0.5,0 -0.5,-0.21 -0.6,-0.6 -0.9,-2.78 -2.4,-4.22 -3.7,-4.22 -0.7,0 -0.9,0.46 -0.9,1.22 0,0.8 0.2,1.47 0.6,2.24 0.3,0.93 0.7,1.87 1.1,2.78 0.3,0.84 1.5,4.01 1.7,4.44 0.1,0.34 0.2,0.76 0.2,1.11 0,1.64 -1.4,2.95 -3.3,2.95 -3.5,0 -5.1,-4.74 -5.1,-5.33 0,-0.45 0.5,-0.45 0.6,-0.45 0.5,0 0.5,0.17 0.6,0.56 0.9,3 2.5,4.25 3.8,4.25 0.5,0 0.8,-0.28 0.8,-1.22 0,-0.8 -0.2,-1.33 -1.1,-3.48 z"
             inkscape:connector-curvature="0"
             style="fill:#000000;stroke-width:0" /><path
             id="path4435"
             d="m 1598.2,358.89 -0.1,0.38 v 0.38 0.39 0.41 0.84 l -0.1,0.88 -0.1,0.92 -0.1,0.95 -0.1,0.98 -0.2,1 -0.2,1.02 -0.2,1.04 -0.3,1.05 -0.3,1.06 -0.3,1.06 -0.4,1.07 -0.2,0.53 -0.2,0.53 -0.3,0.53 -0.2,0.53 c -3,6.13 -7.3,9.36 -7.8,9.36 -0.3,0 -0.5,-0.19 -0.5,-0.48 0,-0.16 0,-0.25 0.9,-1.16 4.9,-4.92 7.8,-12.84 7.8,-23.27 0,-8.51 -1.9,-17.28 -8.1,-23.56 -0.6,-0.59 -0.6,-0.7 -0.6,-0.84 0,-0.3 0.2,-0.5 0.5,-0.5 0.5,0 5,3.39 7.9,9.72 2.6,5.47 3.2,11 3.2,15.18 z"
             inkscape:connector-curvature="0"
             style="fill:#000000;stroke-width:0" /></g>      </g>
    </g>
    <text
       xml:space="preserve"
       style="font-style:normal;font-weight:normal;font-size:40px;line-height:1.25;font-family:sans-serif;letter-spacing:0px;word-spacing:0px;fill:#000000;fill-opacity:1;stroke:none"
       x="-19.85199"
       y="631.63867"
       id="text3964"><tspan
         sodipodi:role="line"
         id="tspan3962"
         x="-19.85199"
         y="631.63867">known</tspan></text>
    <path
       style="fill:none;stroke:#000000;stroke-width:2;stroke-linecap:butt;stroke-linejoin:miter;stroke-miterlimit:4;stroke-dasharray:none;stroke-opacity:1;marker-end:url(#Arrow1MendiD2s6P)"
       d="m -30.0689,619.21251 c -28.64545,0.58904 -33.13012,-3.12827 -38.56251,-28.10352"
       id="path3966"
       inkscape:connector-curvature="0"
       sodipodi:nodetypes="cc" />
    <path
       style="fill:none;stroke:#000000;stroke-width:2;stroke-linecap:butt;stroke-linejoin:miter;stroke-miterlimit:4;stroke-dasharray:none;stroke-opacity:1;marker-end:url(#Arrow1MendiD2s6P-1)"
       d="m -497.02484,634.25579 c 26.35454,-1.91096 31.36987,-2.12827 37.43748,-28.10352"
       id="path3966-6"
       inkscape:connector-curvature="0"
       sodipodi:nodetypes="cc" />
    <text
       xml:space="preserve"
       style="font-style:normal;font-weight:normal;font-size:40px;line-height:1.25;font-family:sans-serif;letter-spacing:0px;word-spacing:0px;fill:#000000;fill-opacity:1;stroke:none"
       x="-686.7652"
       y="645.65594"
       id="text3964-3"><tspan
         sodipodi:role="line"
         id="tspan3962-2"
         x="-686.7652"
         y="645.65594">unknown</tspan></text>
    <text
       xml:space="preserve"
       style="font-style:normal;font-weight:normal;font-size:40px;line-height:1.25;font-family:sans-serif;letter-spacing:0px;word-spacing:0px;fill:#000000;fill-opacity:1;stroke:none"
       x="-350.08463"
       y="665.66827"
       id="text3964-1"><tspan
         sodipodi:role="line"
         id="tspan3962-5"
         x="-350.08463"
         y="665.66827">RBF weights</tspan></text>
    <path
       style="fill:none;stroke:#000000;stroke-width:2;stroke-linecap:butt;stroke-linejoin:miter;stroke-miterlimit:4;stroke-dasharray:none;stroke-opacity:1;marker-end:url(#Arrow1MendiD2s6P-0)"
       d="m -243.80152,630.74207 c 3.85455,-24.41096 9.86988,-25.12827 4.43749,-50.10352"
       id="path3966-5"
       inkscape:connector-curvature="0"
       sodipodi:nodetypes="cc" />
  </g>
</svg>
