<?xml version="1.0" encoding="UTF-8" standalone="no"?>
<!-- Created with Inkscape (http://www.inkscape.org/) -->

<svg
   xmlns:dc="http://purl.org/dc/elements/1.1/"
   xmlns:cc="http://creativecommons.org/ns#"
   xmlns:rdf="http://www.w3.org/1999/02/22-rdf-syntax-ns#"
   xmlns:svg="http://www.w3.org/2000/svg"
   xmlns="http://www.w3.org/2000/svg"
   xmlns:sodipodi="http://sodipodi.sourceforge.net/DTD/sodipodi-0.dtd"
   xmlns:inkscape="http://www.inkscape.org/namespaces/inkscape"
   width="66.774307mm"
   height="43.455513mm"
   viewBox="0 0 66.774307 43.455513"
   version="1.1"
   id="svg8"
   inkscape:version="0.92.5 (2060ec1f9f, 2020-04-08)"
   sodipodi:docname="mean_displacement_invariance.svg">
  <defs
     id="defs2">
    <marker
       inkscape:stockid="StopL"
       orient="auto"
       refY="0"
       refX="0"
       id="StopL"
       style="overflow:visible"
       inkscape:isstock="true">
      <path
         id="path1108"
         d="M 0,5.65 V -5.65"
         style="fill:none;fill-opacity:0.75;fill-rule:evenodd;stroke:#000000;stroke-width:1.00000003pt;stroke-opacity:1"
         transform="scale(0.8)"
         inkscape:connector-curvature="0" />
    </marker>
  </defs>
  <sodipodi:namedview
     id="base"
     pagecolor="#ffffff"
     bordercolor="#666666"
     borderopacity="1.0"
     inkscape:pageopacity="0.0"
     inkscape:pageshadow="2"
     inkscape:zoom="1.4"
     inkscape:cx="108.83848"
     inkscape:cy="64.214102"
     inkscape:document-units="mm"
     inkscape:current-layer="layer1"
     showgrid="false"
     inkscape:window-width="1548"
     inkscape:window-height="836"
     inkscape:window-x="1972"
     inkscape:window-y="634"
     inkscape:window-maximized="1"
     inkscape:snap-global="false"
     fit-margin-top="0"
     fit-margin-left="0"
     fit-margin-right="0"
     fit-margin-bottom="0" />
  <metadata
     id="metadata5">
    <rdf:RDF>
      <cc:Work
         rdf:about="">
        <dc:format>image/svg+xml</dc:format>
        <dc:type
           rdf:resource="http://purl.org/dc/dcmitype/StillImage" />
        <dc:title></dc:title>
      </cc:Work>
    </rdf:RDF>
  </metadata>
  <g
     inkscape:label="Layer 1"
     inkscape:groupmode="layer"
     id="layer1"
     transform="translate(-40.795186,-85.847657)">
    <path
       style="fill:#000000;fill-opacity:0.1372549;stroke:none;stroke-width:0.26458332px;stroke-linecap:butt;stroke-linejoin:miter;stroke-opacity:1"
       d="m 80.314493,116.52625 c -0.296298,-6.91136 0.183642,-10.3817 5.211755,-12.89576 3.59546,-1.79773 4.809975,-2.73907 8.418989,-4.543581 18.091513,-9.045748 14.035743,26.726961 -4.810849,26.726961 -6.134479,0 -8.523597,-2.37626 -8.819895,-9.28762 z"
       id="path817"
       inkscape:connector-curvature="0"
       sodipodi:nodetypes="zsssz" />
    <path
       style="fill:#000000;fill-opacity:0.1372549;stroke:none;stroke-width:0.16297321px;stroke-linecap:butt;stroke-linejoin:miter;stroke-opacity:1"
       d="m 85.0761,114.68274 c -0.18251,-4.25714 1.315798,-6.24482 4.155181,-8.22678 1.789435,-1.24907 2.017816,-1.40368 4.240831,-2.51519 11.143688,-5.571831 10.440878,15.51785 -2.9633,16.46279 -3.769248,0.26572 -5.250201,-1.46368 -5.432712,-5.72082 z"
       id="path817-3"
       inkscape:connector-curvature="0"
       sodipodi:nodetypes="zsssz" />
    <path
       style="fill:#000000;fill-opacity:0.1372549;stroke:none;stroke-width:0.09786531px;stroke-linecap:butt;stroke-linejoin:miter;stroke-opacity:1"
       d="m 88.314618,113.55664 c -0.109596,-2.55641 0.115167,-3.98177 1.974996,-4.91168 1.329905,-0.66496 1.731888,-0.8714 3.066807,-1.53886 6.691779,-3.34588 5.711321,10.02763 -1.259742,10.02763 -2.26905,0 -3.672464,-1.02069 -3.782061,-3.57709 z"
       id="path817-6"
       inkscape:connector-curvature="0"
       sodipodi:nodetypes="zsssz" />
    <path
       style="fill:#000000;fill-opacity:0.1372549;stroke:none;stroke-width:0.05108815px;stroke-linecap:butt;stroke-linejoin:miter;stroke-opacity:1"
       d="m 90.605982,112.80029 c -0.05722,-1.3345 0.205504,-2.34468 1.176375,-2.83012 0.694244,-0.34712 1.274727,-0.7227 2.050731,-0.79229 3.833354,-0.34377 2.114988,5.41575 -1.524082,5.41575 -1.1845,0 -1.645813,-0.45884 -1.703024,-1.79334 z"
       id="path817-7"
       inkscape:connector-curvature="0"
       sodipodi:nodetypes="zsssz" />
    <path
       style="fill:#000000;fill-opacity:0.1372549;stroke:none;stroke-width:0.28639111px;stroke-linecap:butt;stroke-linejoin:miter;stroke-opacity:1"
       d="m 42.545858,110.72522 c -3.05537,-6.80783 -1.99083,-11.034674 2.25365,-15.188934 3.03512,-2.97058 3.32264,-2.93519 6.36899,-5.91718 15.27199,-14.9473 26.61579,18.824614 7.77593,26.769134 -8.19634,3.4563 -13.34321,1.14481 -16.39858,-5.663 z"
       id="path817-5"
       inkscape:connector-curvature="0"
       sodipodi:nodetypes="zsssz" />
    <path
       style="fill:#000000;fill-opacity:0.1372549;stroke:none;stroke-width:0.17640598px;stroke-linecap:butt;stroke-linejoin:miter;stroke-opacity:1"
       d="m 48.116758,108.09721 c -1.88199,-4.19336 -2.52826,-6.38973 -0.35482,-9.297354 1.36975,-1.83245 3.30814,-2.84116 5.29192,-4.57516 8.65098,-7.56162 18.69926,11.473564 5.09638,16.796634 -3.82513,1.49685 -8.15148,1.26924 -10.03348,-2.92412 z"
       id="path817-3-3"
       inkscape:connector-curvature="0"
       sodipodi:nodetypes="zsssz" />
    <path
       style="fill:#000000;fill-opacity:0.1372549;stroke:none;stroke-width:0.10593169px;stroke-linecap:butt;stroke-linejoin:miter;stroke-opacity:1"
       d="m 51.046518,105.9142 c -1.13013,-2.51811 -1.46213,-4.01551 0.10786,-5.55211 1.12262,-1.098784 2.23168,-2.456954 3.70904,-3.113774 7.35051,-3.26789 8.8183,8.726534 1.54862,11.003934 -2.36624,0.74127 -4.23539,0.18005 -5.36552,-2.33805 z"
       id="path817-6-5"
       inkscape:connector-curvature="0"
       sodipodi:nodetypes="zsssz" />
    <path
       style="fill:#000000;fill-opacity:0.1372549;stroke:none;stroke-width:0.055299px;stroke-linecap:butt;stroke-linejoin:miter;stroke-opacity:1"
       d="m 53.135478,104.41002 c -0.58994,-1.31451 -0.94281,-2.14034 -0.12324,-2.94249 0.58605,-0.57357 1.26757,-1.40763 2.04922,-1.730624 3.86095,-1.59576 5.03174,4.262614 1.23679,5.451464 -1.23524,0.38696 -2.57277,0.53621 -3.16273,-0.77831 z"
       id="path817-7-6"
       inkscape:connector-curvature="0"
       sodipodi:nodetypes="zsssz" />
    <circle
       style="fill:#000000;fill-opacity:1;stroke:none;stroke-width:1.32291663;stroke-miterlimit:4;stroke-dasharray:3.96874995, 3.96874995;stroke-dashoffset:0;stroke-opacity:1"
       id="path891"
       cx="93.358963"
       cy="111.9767"
       r="0.66145831" />
    <circle
       style="fill:#000000;fill-opacity:1;stroke:none;stroke-width:1.32291663;stroke-miterlimit:4;stroke-dasharray:3.96874999, 3.96874999;stroke-dashoffset:0;stroke-opacity:1"
       id="path891-2"
       cx="102.90286"
       cy="101.39338"
       r="0.66145831" />
    <path
       style="fill:none;stroke:#000000;stroke-width:0.26499999;stroke-linecap:butt;stroke-linejoin:miter;stroke-miterlimit:4;stroke-dasharray:none;stroke-opacity:1"
       d="m 93.358966,111.97672 9.449414,-10.48884"
       id="path935"
       inkscape:connector-curvature="0" />
    <circle
       style="fill:#000000;fill-opacity:1;stroke:none;stroke-width:1.32291663;stroke-miterlimit:4;stroke-dasharray:3.96874999, 3.96874999;stroke-dashoffset:0;stroke-opacity:1"
       id="path891-9"
       cx="55.674572"
       cy="102.40553"
       r="0.66145831" />
    <circle
       style="fill:#000000;fill-opacity:1;stroke:none;stroke-width:1.32291663;stroke-miterlimit:4;stroke-dasharray:3.96875003, 3.96875003;stroke-dashoffset:0;stroke-opacity:1"
       id="path891-2-1"
       cx="65.218475"
       cy="91.822197"
       r="0.66145831" />
    <path
       style="fill:none;stroke:#000000;stroke-width:0.26499999;stroke-linecap:butt;stroke-linejoin:miter;stroke-miterlimit:4;stroke-dasharray:none;stroke-opacity:1"
       d="m 55.674578,102.40554 9.44941,-10.488834"
       id="path935-2"
       inkscape:connector-curvature="0" />
    <g
       id="g1276"
       transform="matrix(0.27626399,0,0,0.27626399,8.9051262,82.700969)">
      <g
         word-spacing="normal"
         letter-spacing="normal"
         font-size-adjust="none"
         font-stretch="normal"
         font-weight="normal"
         font-variant="normal"
         font-style="normal"
         stroke-miterlimit="10.433"
         xml:space="preserve"
         transform="matrix(0.3,0,0,-0.3,-52.5,222.75)"
         id="content"
         style="font-style:normal;font-variant:normal;font-weight:normal;font-stretch:normal;letter-spacing:normal;word-spacing:normal;text-anchor:start;fill:none;fill-opacity:1;fill-rule:evenodd;stroke:#000000;stroke-linecap:butt;stroke-linejoin:miter;stroke-miterlimit:10.43299961;stroke-dasharray:none;stroke-dashoffset:0;stroke-opacity:1"><path
           id="path1267"
           d="m 1203,363.93 v 0.1 0.1 l 0.1,0.11 v 0.11 0.12 l 0.1,0.12 v 0.24 l 0.1,0.25 v 0.25 l 0.1,0.25 0.1,0.24 v 0.12 0.11 0.11 l 0.1,0.11 v 0.1 0.1 0.1 l 0.1,0.09 v 0.08 0.08 0.07 0.06 0.05 0.05 0.03 0.02 0.01 c 0,0.85 -0.6,1.35 -1.4,1.35 -0.2,0 -1.5,-0.05 -2,-1.78 l -7.2,-28.86 c -0.1,-0.6 -0.1,-0.69 -0.1,-0.8 0,-0.73 0.5,-1.34 1.4,-1.34 1,0 1.6,0.9 1.7,1.04 0.2,0.46 0.9,3.05 2.8,10.72 1.5,-1.34 3.8,-1.55 4.8,-1.55 3.5,0 5.4,2.24 6.6,3.65 0.5,-2.25 2.3,-3.65 4.5,-3.65 1.7,0 2.9,1.15 3.7,2.74 0.8,1.8 1.5,4.84 1.5,4.94 0,0.5 -0.5,0.5 -0.6,0.5 -0.5,0 -0.6,-0.21 -0.7,-0.91 -0.9,-3.23 -1.8,-6.17 -3.8,-6.17 -1.3,0 -1.5,1.3 -1.5,2.3 0,1.09 0.6,3.43 1,5.17 l 1.4,5.39 c 0.1,0.75 0.6,2.64 0.8,3.39 0.3,1.14 0.8,3.03 0.8,3.33 0,0.9 -0.7,1.34 -1.5,1.34 -0.2,0 -1.5,-0.05 -1.9,-1.73 l -2.3,-9.33 c -0.6,-2.49 -1.2,-4.58 -1.3,-5.08 -0.1,-0.25 -2.5,-4.78 -6.5,-4.78 -2.5,0 -3.7,1.64 -3.7,4.33 0,1.45 0.3,2.84 0.7,4.25 z"
           inkscape:connector-curvature="0"
           style="fill:#000000;stroke-width:0" /><path
           id="path1269"
           d="m 1238,334.49 v 0.02 0.03 0.01 0.02 0.01 l -0.1,0.02 v 0.02 0.01 0.02 0.02 0.03 0.02 0.02 0.03 l -0.1,0.03 v 0.03 0.04 0.03 l -0.1,0.02 v 0.02 0.02 0.02 0.02 l -0.1,0.03 v 0.02 0.02 0.03 0.03 l -0.1,0.02 v 0.03 0.03 0.03 l -0.1,0.03 v 0.03 0.03 l -0.1,0.03 v 0.04 0.03 l -0.1,0.04 v 0.04 0.03 l -0.1,0.04 c -6.2,6.28 -7.8,15.69 -7.8,23.31 0,8.68 1.9,17.35 8,23.57 0.7,0.61 0.7,0.7 0.7,0.86 0,0.34 -0.2,0.48 -0.5,0.48 -0.5,0 -5,-3.37 -7.9,-9.7 -2.6,-5.49 -3.2,-11.02 -3.2,-15.21 0,-3.89 0.6,-9.9 3.3,-15.54 3,-6.13 7.3,-9.36 7.8,-9.36 0.3,0 0.5,0.14 0.5,0.5 z"
           inkscape:connector-curvature="0"
           style="fill:#000000;stroke-width:0" /><path
           id="path1271"
           d="m 1257.4,361.49 0.1,0.13 v 0.15 0.16 l 0.1,0.18 v 0.2 l 0.1,0.2 0.1,0.22 v 0.22 l 0.1,0.24 0.1,0.24 0.1,0.24 0.1,0.25 0.1,0.25 0.1,0.25 0.2,0.25 0.1,0.24 0.1,0.24 0.2,0.24 0.2,0.23 0.1,0.23 0.2,0.21 0.2,0.2 0.2,0.19 0.3,0.18 0.2,0.16 0.2,0.14 0.2,0.07 0.1,0.06 0.1,0.05 0.2,0.05 0.1,0.05 0.1,0.04 0.2,0.03 0.1,0.03 0.2,0.02 0.1,0.02 0.2,0.01 h 0.2 c 0.2,0 1.4,0 2.5,-0.64 -1.4,-0.25 -2.4,-1.5 -2.4,-2.68 0,-0.8 0.5,-1.75 1.9,-1.75 1,0 2.6,0.89 2.6,2.89 0,2.59 -2.9,3.28 -4.6,3.28 -2.9,0 -4.6,-2.64 -5.2,-3.78 -1.3,3.28 -4,3.78 -5.4,3.78 -5.2,0 -8,-6.42 -8,-7.67 0,-0.5 0.5,-0.5 0.6,-0.5 0.4,0 0.5,0.1 0.6,0.54 1.7,5.28 5,6.53 6.7,6.53 1,0 2.7,-0.43 2.7,-3.32 0,-1.55 -0.9,-4.9 -2.7,-11.86 -0.8,-3.1 -2.5,-5.19 -4.7,-5.19 -0.3,0 -1.5,0 -2.5,0.65 1.2,0.24 2.3,1.29 2.3,2.69 0,1.35 -1.1,1.74 -1.8,1.74 -1.5,0 -2.8,-1.3 -2.8,-2.89 0,-2.29 2.5,-3.29 4.7,-3.29 3.3,0 5.1,3.49 5.3,3.79 0.6,-1.85 2.3,-3.79 5.3,-3.79 5.2,0 8,6.43 8,7.68 0,0.5 -0.4,0.5 -0.6,0.5 -0.4,0 -0.5,-0.21 -0.6,-0.55 -1.7,-5.33 -5.1,-6.53 -6.7,-6.53 -1.9,0 -2.7,1.59 -2.7,3.3 0,1.09 0.3,2.18 0.9,4.37 z"
           inkscape:connector-curvature="0"
           style="fill:#000000;stroke-width:0" /><path
           id="path1273"
           d="m 1283.6,358.89 v 0.38 0.38 0.39 0.41 0.84 l -0.1,0.88 -0.1,0.92 -0.1,0.95 -0.1,0.98 -0.2,1 -0.2,1.02 -0.2,1.04 -0.3,1.05 -0.3,1.06 -0.3,1.06 -0.4,1.07 -0.2,0.53 -0.3,0.53 -0.2,0.53 -0.3,0.53 c -2.9,6.13 -7.2,9.36 -7.7,9.36 -0.3,0 -0.5,-0.19 -0.5,-0.48 0,-0.16 0,-0.25 0.9,-1.16 4.9,-4.92 7.8,-12.84 7.8,-23.27 0,-8.51 -1.9,-17.28 -8.1,-23.56 -0.6,-0.59 -0.6,-0.7 -0.6,-0.84 0,-0.3 0.2,-0.5 0.5,-0.5 0.5,0 4.9,3.39 7.9,9.72 2.5,5.47 3.1,11 3.1,15.18 z"
           inkscape:connector-curvature="0"
           style="fill:#000000;stroke-width:0" /></g>    </g>
    <g
       id="g1467"
       transform="matrix(0.27306551,0,0,0.27306551,-10.031993,57.175474)">
      <g
         word-spacing="normal"
         letter-spacing="normal"
         font-size-adjust="none"
         font-stretch="normal"
         font-weight="normal"
         font-variant="normal"
         font-style="normal"
         stroke-miterlimit="10.433"
         xml:space="preserve"
         transform="matrix(0.3,0,0,-0.3,-52.5,222.75)"
         id="g1465"
         style="font-style:normal;font-variant:normal;font-weight:normal;font-stretch:normal;letter-spacing:normal;word-spacing:normal;text-anchor:start;fill:none;fill-opacity:1;fill-rule:evenodd;stroke:#000000;stroke-linecap:butt;stroke-linejoin:miter;stroke-miterlimit:10.43299961;stroke-dasharray:none;stroke-dashoffset:0;stroke-opacity:1"><path
           id="path1441"
           d="m 1086.1,365.43 v 0.03 0.03 0.06 0.05 l 0.1,0.06 v 0.05 0.05 0.04 0.05 0.04 0.04 0.03 0.04 l 0.1,0.03 v 0.03 0.04 0.02 0.03 0.03 0.06 0.05 0.05 0.05 0.06 0.03 0.02 0.03 0.04 c 0,0.9 -0.7,1.34 -1.5,1.34 -0.5,0 -1.2,-0.3 -1.7,-1.05 -0.1,-0.25 -0.5,-1.78 -0.7,-2.68 -0.3,-1.3 -0.7,-2.64 -1,-3.99 l -2.2,-8.97 c -0.2,-0.75 -2.4,-4.23 -5.7,-4.23 -2.5,0 -3.1,2.19 -3.1,4.03 0,2.3 0.9,5.39 2.6,9.77 0.8,2.04 1,2.59 1,3.59 0,2.23 -1.6,4.08 -4.1,4.08 -4.7,0 -6.6,-7.22 -6.6,-7.67 0,-0.5 0.5,-0.5 0.6,-0.5 0.5,0 0.6,0.1 0.8,0.9 1.4,4.69 3.4,6.17 5.1,6.17 0.3,0 1.2,0 1.2,-1.59 0,-1.25 -0.5,-2.53 -0.9,-3.48 -1.9,-5.29 -2.9,-8.13 -2.9,-10.47 0,-4.43 3.2,-5.93 6.1,-5.93 2,0 3.7,0.85 5.1,2.24 -0.7,-2.58 -1.3,-5.03 -3.3,-7.67 -1.3,-1.69 -3.2,-3.14 -5.5,-3.14 -0.6,0 -2.9,0.15 -3.7,2.09 0.8,0 1.4,0 2.1,0.61 0.5,0.44 1,1.09 1,2.03 0,1.55 -1.3,1.75 -1.8,1.75 -1.2,0 -2.8,-0.8 -2.8,-3.23 0,-2.5 2.2,-4.35 5.2,-4.35 5.2,0 10.3,4.55 11.7,10.17 z"
           inkscape:connector-curvature="0"
           style="fill:#000000;stroke-width:0" /><path
           id="path1443"
           d="m 1132,357.89 0.2,0.01 h 0.1 0.2 l 0.1,0.01 h 0.1 v 0.01 l 0.1,0.01 0.1,0.01 v 0.01 l 0.1,0.01 0.1,0.02 0.1,0.02 v 0.02 l 0.1,0.02 v 0.03 l 0.1,0.03 v 0.04 l 0.1,0.04 v 0.04 l 0.1,0.05 v 0.05 0.02 l 0.1,0.03 v 0.03 0.03 0.03 0.04 0.03 0.03 0.04 0.04 l 0.1,0.04 v 0.04 0.04 0.04 0.05 0.04 c 0,1 -0.9,1 -1.8,1 h -26.9 c -0.9,0 -1.8,0 -1.8,-1 0,-1 0.9,-1 1.8,-1 z"
           inkscape:connector-curvature="0"
           style="fill:#000000;stroke-width:0" /><path
           id="path1445"
           d="m 1160.5,363.93 v 0.1 l 0.1,0.1 v 0.11 0.11 0.12 l 0.1,0.12 v 0.24 l 0.1,0.25 0.1,0.25 v 0.25 l 0.1,0.24 v 0.12 0.11 l 0.1,0.11 v 0.11 0.1 0.1 0.1 l 0.1,0.09 v 0.08 0.08 0.07 0.06 0.05 0.05 0.03 0.02 0.01 c 0,0.85 -0.5,1.35 -1.4,1.35 -0.1,0 -1.5,-0.05 -2,-1.78 l -7.2,-28.86 c -0.1,-0.6 -0.1,-0.69 -0.1,-0.8 0,-0.73 0.5,-1.34 1.4,-1.34 1,0 1.6,0.9 1.7,1.04 0.2,0.46 0.9,3.05 2.8,10.72 1.6,-1.34 3.8,-1.55 4.8,-1.55 3.5,0 5.4,2.24 6.6,3.65 0.5,-2.25 2.3,-3.65 4.5,-3.65 1.8,0 2.9,1.15 3.7,2.74 0.8,1.8 1.5,4.84 1.5,4.94 0,0.5 -0.5,0.5 -0.6,0.5 -0.5,0 -0.5,-0.21 -0.7,-0.91 -0.8,-3.23 -1.8,-6.17 -3.8,-6.17 -1.3,0 -1.5,1.3 -1.5,2.3 0,1.09 0.6,3.43 1,5.17 l 1.4,5.39 c 0.2,0.75 0.6,2.64 0.9,3.39 0.2,1.14 0.7,3.03 0.7,3.33 0,0.9 -0.7,1.34 -1.4,1.34 -0.3,0 -1.6,-0.05 -2,-1.73 l -2.3,-9.33 c -0.6,-2.49 -1.2,-4.58 -1.3,-5.08 -0.1,-0.25 -2.5,-4.78 -6.5,-4.78 -2.5,0 -3.7,1.64 -3.7,4.33 0,1.45 0.4,2.84 0.7,4.25 z"
           inkscape:connector-curvature="0"
           style="fill:#000000;stroke-width:0" /><path
           id="path1447"
           d="m 1195.5,334.49 v 0.02 0.03 0.01 0.02 0.01 0.02 0.02 0.01 l -0.1,0.02 v 0.02 0.03 0.02 0.02 0.03 0.03 l -0.1,0.03 v 0.04 0.03 0.02 l -0.1,0.02 v 0.02 0.02 0.02 0.03 l -0.1,0.02 v 0.02 0.03 0.03 l -0.1,0.02 v 0.03 0.03 0.03 l -0.1,0.03 v 0.03 0.03 l -0.1,0.03 v 0.04 0.03 l -0.1,0.04 v 0.04 0.03 l -0.1,0.04 c -6.2,6.28 -7.8,15.69 -7.8,23.31 0,8.68 1.9,17.35 8,23.57 0.7,0.61 0.7,0.7 0.7,0.86 0,0.34 -0.2,0.48 -0.5,0.48 -0.5,0 -5,-3.37 -7.9,-9.7 -2.6,-5.49 -3.2,-11.02 -3.2,-15.21 0,-3.89 0.6,-9.9 3.3,-15.54 3,-6.13 7.3,-9.36 7.8,-9.36 0.3,0 0.5,0.14 0.5,0.5 z"
           inkscape:connector-curvature="0"
           style="fill:#000000;stroke-width:0" /><path
           id="path1449"
           d="m 1214.9,361.49 0.1,0.13 v 0.15 l 0.1,0.16 v 0.18 l 0.1,0.2 v 0.2 l 0.1,0.22 0.1,0.22 v 0.24 l 0.1,0.24 0.1,0.24 0.1,0.25 0.1,0.25 0.2,0.25 0.1,0.25 0.1,0.24 0.2,0.24 0.1,0.24 0.2,0.23 0.2,0.23 0.2,0.21 0.2,0.2 0.2,0.19 0.2,0.18 0.2,0.16 0.3,0.14 0.1,0.07 0.1,0.06 0.1,0.05 0.2,0.05 0.1,0.05 0.2,0.04 0.1,0.03 0.2,0.03 0.1,0.02 0.2,0.02 0.1,0.01 h 0.2 c 0.2,0 1.4,0 2.5,-0.64 -1.4,-0.25 -2.4,-1.5 -2.4,-2.68 0,-0.8 0.5,-1.75 1.9,-1.75 1.1,0 2.7,0.89 2.7,2.89 0,2.59 -3,3.28 -4.7,3.28 -2.9,0 -4.6,-2.64 -5.2,-3.78 -1.3,3.28 -3.9,3.78 -5.4,3.78 -5.2,0 -8,-6.42 -8,-7.67 0,-0.5 0.5,-0.5 0.6,-0.5 0.4,0 0.5,0.1 0.6,0.54 1.7,5.28 5,6.53 6.7,6.53 1,0 2.7,-0.43 2.7,-3.32 0,-1.55 -0.8,-4.9 -2.7,-11.86 -0.8,-3.1 -2.5,-5.19 -4.7,-5.19 -0.3,0 -1.5,0 -2.5,0.65 1.2,0.24 2.3,1.29 2.3,2.69 0,1.35 -1.1,1.74 -1.8,1.74 -1.5,0 -2.7,-1.3 -2.7,-2.89 0,-2.29 2.4,-3.29 4.6,-3.29 3.3,0 5.1,3.49 5.3,3.79 0.6,-1.85 2.4,-3.79 5.3,-3.79 5.2,0 8,6.43 8,7.68 0,0.5 -0.4,0.5 -0.6,0.5 -0.4,0 -0.5,-0.21 -0.6,-0.55 -1.7,-5.33 -5,-6.53 -6.6,-6.53 -2,0 -2.8,1.59 -2.8,3.3 0,1.09 0.3,2.18 0.9,4.37 z"
           inkscape:connector-curvature="0"
           style="fill:#000000;stroke-width:0" /><path
           id="path1451"
           d="m 1241.1,358.89 v 0.38 0.38 0.39 0.41 0.84 l -0.1,0.88 -0.1,0.92 -0.1,0.95 -0.1,0.98 -0.2,1 -0.2,1.02 -0.2,1.04 -0.3,1.05 -0.3,1.06 -0.3,1.06 -0.4,1.07 -0.2,0.53 -0.3,0.53 -0.2,0.53 -0.2,0.53 c -3,6.13 -7.3,9.36 -7.8,9.36 -0.3,0 -0.5,-0.19 -0.5,-0.48 0,-0.16 0,-0.25 0.9,-1.16 4.9,-4.92 7.8,-12.84 7.8,-23.27 0,-8.51 -1.9,-17.28 -8.1,-23.56 -0.6,-0.59 -0.6,-0.7 -0.6,-0.84 0,-0.3 0.2,-0.5 0.5,-0.5 0.5,0 5,3.39 7.9,9.72 2.5,5.47 3.1,11 3.1,15.18 z"
           inkscape:connector-curvature="0"
           style="fill:#000000;stroke-width:0" /><path
           id="path1453"
           d="m 1277.7,357.89 h 13.9 c 0.7,0 1.7,0 1.7,1 0,1 -1,1 -1.7,1 h -13.9 v 13.96 c 0,0.69 0,1.64 -1,1.64 -1,0 -1,-0.95 -1,-1.64 v -13.96 h -13.9 c -0.7,0 -1.7,0 -1.7,-1 0,-1 1,-1 1.7,-1 h 13.9 v -13.93 c 0,-0.71 0,-1.66 1,-1.66 1,0 1,0.95 1,1.66 z"
           inkscape:connector-curvature="0"
           style="fill:#000000;stroke-width:0" /><path
           id="path1455"
           d="m 1318.7,363.93 v 0.1 0.1 0.11 l 0.1,0.11 v 0.12 0.12 l 0.1,0.24 v 0.25 l 0.1,0.25 0.1,0.25 v 0.24 0.12 l 0.1,0.11 v 0.11 0.11 0.1 l 0.1,0.1 v 0.1 0.09 0.08 0.08 l 0.1,0.07 v 0.06 0.05 0.05 0.03 0.02 0.01 c 0,0.85 -0.6,1.35 -1.5,1.35 -0.1,0 -1.5,-0.05 -2,-1.78 l -7.1,-28.86 c -0.2,-0.6 -0.2,-0.69 -0.2,-0.8 0,-0.73 0.6,-1.34 1.4,-1.34 1.1,0 1.7,0.9 1.8,1.04 0.2,0.46 0.8,3.05 2.7,10.72 1.6,-1.34 3.8,-1.55 4.8,-1.55 3.5,0 5.5,2.24 6.7,3.65 0.4,-2.25 2.3,-3.65 4.4,-3.65 1.8,0 2.9,1.15 3.7,2.74 0.9,1.8 1.5,4.84 1.5,4.94 0,0.5 -0.4,0.5 -0.5,0.5 -0.5,0 -0.6,-0.21 -0.8,-0.91 -0.8,-3.23 -1.7,-6.17 -3.7,-6.17 -1.4,0 -1.5,1.3 -1.5,2.3 0,1.09 0.6,3.43 1,5.17 l 1.3,5.39 c 0.2,0.75 0.7,2.64 0.9,3.39 0.3,1.14 0.8,3.03 0.8,3.33 0,0.9 -0.8,1.34 -1.5,1.34 -0.2,0 -1.5,-0.05 -1.9,-1.73 l -2.4,-9.33 c -0.6,-2.49 -1.1,-4.58 -1.3,-5.08 0,-0.25 -2.4,-4.78 -6.4,-4.78 -2.5,0 -3.7,1.64 -3.7,4.33 0,1.45 0.3,2.84 0.7,4.25 z"
           inkscape:connector-curvature="0"
           style="fill:#000000;stroke-width:0" /><path
           id="path1457"
           d="m 1353.6,334.49 v 0.02 0.03 0.01 0.02 0.01 0.02 0.02 0.01 0.02 0.02 0.03 l -0.1,0.02 v 0.02 0.03 0.03 0.03 l -0.1,0.04 v 0.03 0.02 0.02 0.02 l -0.1,0.02 v 0.02 0.03 0.02 0.02 l -0.1,0.03 v 0.03 0.02 0.03 l -0.1,0.03 v 0.03 0.03 0.03 l -0.1,0.03 v 0.03 0.04 l -0.1,0.03 v 0.04 l -0.1,0.04 v 0.03 0.04 c -6.2,6.28 -7.8,15.69 -7.8,23.31 0,8.68 1.8,17.35 8,23.57 0.6,0.61 0.6,0.7 0.6,0.86 0,0.34 -0.2,0.48 -0.5,0.48 -0.5,0 -4.9,-3.37 -7.9,-9.7 -2.5,-5.49 -3.1,-11.02 -3.1,-15.21 0,-3.89 0.5,-9.9 3.2,-15.54 3,-6.13 7.3,-9.36 7.8,-9.36 0.3,0 0.5,0.14 0.5,0.5 z"
           inkscape:connector-curvature="0"
           style="fill:#000000;stroke-width:0" /><path
           id="path1459"
           d="m 1373.1,361.49 v 0.13 l 0.1,0.15 v 0.16 0.18 l 0.1,0.2 0.1,0.2 v 0.22 l 0.1,0.22 0.1,0.24 0.1,0.24 0.1,0.24 0.1,0.25 0.1,0.25 0.1,0.25 0.1,0.25 0.2,0.24 0.1,0.24 0.2,0.24 0.1,0.23 0.2,0.23 0.2,0.21 0.2,0.2 0.2,0.19 0.2,0.18 0.3,0.16 0.2,0.14 0.1,0.07 0.2,0.06 0.1,0.05 0.1,0.05 0.2,0.05 0.1,0.04 0.2,0.03 0.1,0.03 0.2,0.02 0.1,0.02 0.2,0.01 h 0.1 c 0.3,0 1.5,0 2.5,-0.64 -1.4,-0.25 -2.4,-1.5 -2.4,-2.68 0,-0.8 0.6,-1.75 1.9,-1.75 1.1,0 2.7,0.89 2.7,2.89 0,2.59 -2.9,3.28 -4.6,3.28 -2.9,0 -4.7,-2.64 -5.3,-3.78 -1.2,3.28 -3.9,3.78 -5.3,3.78 -5.2,0 -8.1,-6.42 -8.1,-7.67 0,-0.5 0.5,-0.5 0.7,-0.5 0.3,0 0.5,0.1 0.6,0.54 1.7,5.28 5,6.53 6.7,6.53 0.9,0 2.7,-0.43 2.7,-3.32 0,-1.55 -0.9,-4.9 -2.7,-11.86 -0.8,-3.1 -2.6,-5.19 -4.8,-5.19 -0.3,0 -1.4,0 -2.5,0.65 1.3,0.24 2.4,1.29 2.4,2.69 0,1.35 -1.1,1.74 -1.9,1.74 -1.5,0 -2.7,-1.3 -2.7,-2.89 0,-2.29 2.5,-3.29 4.7,-3.29 3.3,0 5.1,3.49 5.2,3.79 0.6,-1.85 2.4,-3.79 5.4,-3.79 5.1,0 8,6.43 8,7.68 0,0.5 -0.5,0.5 -0.6,0.5 -0.5,0 -0.6,-0.21 -0.7,-0.55 -1.6,-5.33 -5,-6.53 -6.6,-6.53 -2,0 -2.7,1.59 -2.7,3.3 0,1.09 0.2,2.18 0.8,4.37 z"
           inkscape:connector-curvature="0"
           style="fill:#000000;stroke-width:0" /><path
           id="path1461"
           d="m 1395,383.41 0.1,0.06 v 0.05 0.05 0.05 0.04 l 0.1,0.05 v 0.04 0.05 0.04 0.04 0.04 l 0.1,0.03 v 0.04 0.03 0.04 0.03 0.03 0.03 0.04 0.02 0.03 0.03 0.03 0.03 0.05 0.05 0.05 0.04 c 0,1.08 -0.9,1.93 -2,1.93 -1.4,0 -1.7,-1.1 -1.9,-1.65 l -4.6,-15.09 c -0.1,-0.06 -0.2,-0.51 -0.2,-0.56 0,-0.41 1.1,-0.77 1.3,-0.77 0.3,0 0.3,0.08 0.6,0.6 z"
           inkscape:connector-curvature="0"
           style="fill:#000000;stroke-width:0" /><path
           id="path1463"
           d="m 1413.3,358.89 v 0.38 0.38 0.39 0.41 0.84 l -0.1,0.88 -0.1,0.92 -0.1,0.95 -0.1,0.98 -0.2,1 -0.2,1.02 -0.2,1.04 -0.3,1.05 -0.3,1.06 -0.3,1.06 -0.4,1.07 -0.2,0.53 -0.2,0.53 -0.3,0.53 -0.2,0.53 c -3,6.13 -7.3,9.36 -7.8,9.36 -0.3,0 -0.5,-0.19 -0.5,-0.48 0,-0.16 0,-0.25 0.9,-1.16 4.9,-4.92 7.8,-12.84 7.8,-23.27 0,-8.51 -1.9,-17.28 -8.1,-23.56 -0.6,-0.59 -0.6,-0.7 -0.6,-0.84 0,-0.3 0.2,-0.5 0.5,-0.5 0.5,0 5,3.39 7.9,9.72 2.6,5.47 3.1,11 3.1,15.18 z"
           inkscape:connector-curvature="0"
           style="fill:#000000;stroke-width:0" /></g>    </g>
    <g
       id="g1337"
       transform="matrix(0.27575039,0,0,0.27575039,-28.322267,73.609112)">
      <g
         word-spacing="normal"
         letter-spacing="normal"
         font-size-adjust="none"
         font-stretch="normal"
         font-weight="normal"
         font-variant="normal"
         font-style="normal"
         stroke-miterlimit="10.433"
         xml:space="preserve"
         transform="matrix(0.3,0,0,-0.3,-52.5,222.75)"
         id="g1335"
         style="font-style:normal;font-variant:normal;font-weight:normal;font-stretch:normal;letter-spacing:normal;word-spacing:normal;text-anchor:start;fill:none;fill-opacity:1;fill-rule:evenodd;stroke:#000000;stroke-linecap:butt;stroke-linejoin:miter;stroke-miterlimit:10.43299961;stroke-dasharray:none;stroke-dashoffset:0;stroke-opacity:1"><path
           id="path1325"
           d="m 1196,363.93 0.1,0.1 v 0.1 0.11 0.11 l 0.1,0.12 v 0.12 l 0.1,0.24 v 0.25 l 0.1,0.25 v 0.25 l 0.1,0.24 v 0.12 l 0.1,0.11 v 0.11 0.11 0.1 l 0.1,0.1 v 0.1 0.09 0.08 0.08 0.07 0.06 l 0.1,0.05 v 0.05 0.03 0.02 0.01 c 0,0.85 -0.6,1.35 -1.5,1.35 -0.1,0 -1.5,-0.05 -2,-1.78 l -7.1,-28.86 c -0.2,-0.6 -0.2,-0.69 -0.2,-0.8 0,-0.73 0.6,-1.34 1.4,-1.34 1.1,0 1.7,0.9 1.8,1.04 0.1,0.46 0.8,3.05 2.7,10.72 1.6,-1.34 3.8,-1.55 4.8,-1.55 3.5,0 5.5,2.24 6.6,3.65 0.5,-2.25 2.3,-3.65 4.5,-3.65 1.8,0 2.9,1.15 3.7,2.74 0.9,1.8 1.5,4.84 1.5,4.94 0,0.5 -0.4,0.5 -0.6,0.5 -0.5,0 -0.5,-0.21 -0.7,-0.91 -0.8,-3.23 -1.7,-6.17 -3.8,-6.17 -1.3,0 -1.5,1.3 -1.5,2.3 0,1.09 0.6,3.43 1,5.17 l 1.4,5.39 c 0.2,0.75 0.7,2.64 0.9,3.39 0.2,1.14 0.7,3.03 0.7,3.33 0,0.9 -0.7,1.34 -1.4,1.34 -0.3,0 -1.6,-0.05 -2,-1.73 l -2.3,-9.33 c -0.6,-2.49 -1.1,-4.58 -1.3,-5.08 -0.1,-0.25 -2.4,-4.78 -6.5,-4.78 -2.5,0 -3.7,1.64 -3.7,4.33 0,1.45 0.4,2.84 0.7,4.25 z"
           inkscape:connector-curvature="0"
           style="fill:#000000;stroke-width:0" /><path
           id="path1327"
           d="m 1231,334.49 v 0.02 0.03 0.01 0.02 0.01 0.02 0.02 0.01 0.02 0.02 l -0.1,0.03 v 0.02 0.02 0.03 0.03 0.03 l -0.1,0.04 v 0.03 0.02 0.02 l -0.1,0.02 v 0.02 0.02 0.03 0.02 l -0.1,0.02 v 0.03 0.03 0.02 l -0.1,0.03 v 0.03 0.03 0.03 l -0.1,0.03 v 0.03 0.03 l -0.1,0.04 v 0.03 0.04 l -0.1,0.04 v 0.03 0.04 c -6.3,6.28 -7.9,15.69 -7.9,23.31 0,8.68 1.9,17.35 8.1,23.57 0.6,0.61 0.6,0.7 0.6,0.86 0,0.34 -0.2,0.48 -0.5,0.48 -0.5,0 -5,-3.37 -7.9,-9.7 -2.5,-5.49 -3.2,-11.02 -3.2,-15.21 0,-3.89 0.6,-9.9 3.3,-15.54 3,-6.13 7.3,-9.36 7.8,-9.36 0.3,0 0.5,0.14 0.5,0.5 z"
           inkscape:connector-curvature="0"
           style="fill:#000000;stroke-width:0" /><path
           id="path1329"
           d="m 1250.5,361.49 v 0.13 0.15 l 0.1,0.16 v 0.18 l 0.1,0.2 v 0.2 l 0.1,0.22 0.1,0.22 0.1,0.24 v 0.24 l 0.1,0.24 0.1,0.25 0.2,0.25 0.1,0.25 0.1,0.25 0.1,0.24 0.2,0.24 0.1,0.24 0.2,0.23 0.2,0.23 0.2,0.21 0.2,0.2 0.2,0.19 0.2,0.18 0.2,0.16 0.3,0.14 0.1,0.07 0.1,0.06 0.2,0.05 0.1,0.05 0.1,0.05 0.2,0.04 0.1,0.03 0.2,0.03 0.1,0.02 0.2,0.02 0.1,0.01 h 0.2 c 0.3,0 1.4,0 2.5,-0.64 -1.4,-0.25 -2.4,-1.5 -2.4,-2.68 0,-0.8 0.6,-1.75 1.9,-1.75 1.1,0 2.7,0.89 2.7,2.89 0,2.59 -3,3.28 -4.6,3.28 -2.9,0 -4.7,-2.64 -5.3,-3.78 -1.2,3.28 -3.9,3.78 -5.4,3.78 -5.1,0 -8,-6.42 -8,-7.67 0,-0.5 0.5,-0.5 0.6,-0.5 0.4,0 0.6,0.1 0.7,0.54 1.7,5.28 5,6.53 6.6,6.53 1,0 2.7,-0.43 2.7,-3.32 0,-1.55 -0.8,-4.9 -2.7,-11.86 -0.8,-3.1 -2.5,-5.19 -4.7,-5.19 -0.3,0 -1.4,0 -2.5,0.65 1.3,0.24 2.4,1.29 2.4,2.69 0,1.35 -1.1,1.74 -1.9,1.74 -1.5,0 -2.7,-1.3 -2.7,-2.89 0,-2.29 2.5,-3.29 4.7,-3.29 3.2,0 5,3.49 5.2,3.79 0.6,-1.85 2.4,-3.79 5.4,-3.79 5.1,0 8,6.43 8,7.68 0,0.5 -0.5,0.5 -0.7,0.5 -0.4,0 -0.5,-0.21 -0.6,-0.55 -1.6,-5.33 -5,-6.53 -6.6,-6.53 -2,0 -2.8,1.59 -2.8,3.3 0,1.09 0.3,2.18 0.9,4.37 z"
           inkscape:connector-curvature="0"
           style="fill:#000000;stroke-width:0" /><path
           id="path1331"
           d="m 1272.4,383.41 v 0.06 0.05 l 0.1,0.05 v 0.05 0.04 0.05 0.04 l 0.1,0.05 v 0.04 0.04 0.04 0.03 0.04 0.03 0.04 0.03 l 0.1,0.03 v 0.03 0.04 0.02 0.03 0.03 0.03 0.03 0.05 0.05 0.05 0.04 c 0,1.08 -1,1.93 -2.1,1.93 -1.3,0 -1.7,-1.1 -1.9,-1.65 l -4.6,-15.09 c 0,-0.06 -0.2,-0.51 -0.2,-0.56 0,-0.41 1.1,-0.77 1.4,-0.77 0.3,0 0.3,0.08 0.5,0.6 z"
           inkscape:connector-curvature="0"
           style="fill:#000000;stroke-width:0" /><path
           id="path1333"
           d="m 1290.7,358.89 v 0.38 0.38 0.39 0.41 l -0.1,0.84 v 0.88 l -0.1,0.92 -0.1,0.95 -0.1,0.98 -0.2,1 -0.2,1.02 -0.2,1.04 -0.3,1.05 -0.3,1.06 -0.4,1.06 -0.3,1.07 -0.3,0.53 -0.2,0.53 -0.2,0.53 -0.3,0.53 c -3,6.13 -7.2,9.36 -7.7,9.36 -0.3,0 -0.5,-0.19 -0.5,-0.48 0,-0.16 0,-0.25 0.9,-1.16 4.9,-4.92 7.7,-12.84 7.7,-23.27 0,-8.51 -1.8,-17.28 -8,-23.56 -0.6,-0.59 -0.6,-0.7 -0.6,-0.84 0,-0.3 0.2,-0.5 0.5,-0.5 0.5,0 4.9,3.39 7.9,9.72 2.5,5.47 3.1,11 3.1,15.18 z"
           inkscape:connector-curvature="0"
           style="fill:#000000;stroke-width:0" /></g>    </g>
    <g
       id="g1399"
       transform="matrix(0.27946921,0,0,0.27946921,16.270376,66.999815)">
      <g
         word-spacing="normal"
         letter-spacing="normal"
         font-size-adjust="none"
         font-stretch="normal"
         font-weight="normal"
         font-variant="normal"
         font-style="normal"
         stroke-miterlimit="10.433"
         xml:space="preserve"
         transform="matrix(0.3,0,0,-0.3,-52.5,222.75)"
         id="g1397"
         style="font-style:normal;font-variant:normal;font-weight:normal;font-stretch:normal;letter-spacing:normal;word-spacing:normal;text-anchor:start;fill:none;fill-opacity:1;fill-rule:evenodd;stroke:#000000;stroke-linecap:butt;stroke-linejoin:miter;stroke-miterlimit:10.43299961;stroke-dasharray:none;stroke-dashoffset:0;stroke-opacity:1"><path
           id="path1395"
           d="m 1251.2,365.43 v 0.03 0.03 l 0.1,0.06 v 0.05 0.06 0.05 0.05 0.04 0.05 0.04 0.04 l 0.1,0.03 v 0.04 0.03 0.03 0.04 0.02 0.03 0.03 0.06 0.05 0.05 0.05 0.06 0.03 0.02 0.03 0.04 c 0,0.9 -0.7,1.34 -1.4,1.34 -0.5,0 -1.3,-0.3 -1.8,-1.05 -0.1,-0.25 -0.5,-1.78 -0.7,-2.68 -0.3,-1.3 -0.7,-2.64 -1,-3.99 l -2.2,-8.97 c -0.2,-0.75 -2.4,-4.23 -5.6,-4.23 -2.6,0 -3.1,2.19 -3.1,4.03 0,2.3 0.8,5.39 2.5,9.77 0.8,2.04 1,2.59 1,3.59 0,2.23 -1.6,4.08 -4.1,4.08 -4.7,0 -6.6,-7.22 -6.6,-7.67 0,-0.5 0.5,-0.5 0.7,-0.5 0.5,0 0.5,0.1 0.7,0.9 1.4,4.69 3.4,6.17 5.1,6.17 0.4,0 1.2,0 1.2,-1.59 0,-1.25 -0.5,-2.53 -0.8,-3.48 -2,-5.29 -2.9,-8.13 -2.9,-10.47 0,-4.43 3.1,-5.93 6,-5.93 2,0 3.7,0.85 5.1,2.24 -0.7,-2.58 -1.3,-5.03 -3.3,-7.67 -1.3,-1.69 -3.1,-3.14 -5.4,-3.14 -0.7,0 -3,0.15 -3.8,2.09 0.8,0 1.4,0 2.1,0.61 0.5,0.44 1,1.09 1,2.03 0,1.55 -1.3,1.75 -1.8,1.75 -1.2,0 -2.8,-0.8 -2.8,-3.23 0,-2.5 2.2,-4.35 5.3,-4.35 5.1,0 10.2,4.55 11.6,10.17 z"
           inkscape:connector-curvature="0"
           style="fill:#000000;stroke-width:0" /></g>    </g>
    <g
       id="g1540"
       transform="matrix(0.56897453,0,0,0.56897453,-79.74815,58.828497)">
      <g
         word-spacing="normal"
         letter-spacing="normal"
         font-size-adjust="none"
         font-stretch="normal"
         font-weight="normal"
         font-variant="normal"
         font-style="normal"
         stroke-miterlimit="10.433"
         xml:space="preserve"
         transform="matrix(0.3,0,0,-0.3,-51.503533,223.41431)"
         id="g1538"
         style="font-style:normal;font-variant:normal;font-weight:normal;font-stretch:normal;letter-spacing:normal;word-spacing:normal;text-anchor:start;fill:none;fill-opacity:1;fill-rule:evenodd;stroke:#000000;stroke-linecap:butt;stroke-linejoin:miter;stroke-miterlimit:10.43299961;stroke-dasharray:none;stroke-dashoffset:0;stroke-opacity:1"><path
           id="path1534"
           d="m 1234.5,379.82 v 0 0.01 0 0.01 0.01 0.01 0.01 0.01 0.02 0.02 0.02 0.03 0.02 0.03 0.03 0.02 0.03 0.03 l 0.1,0.06 v 0.06 0.03 0.03 0.02 0.03 0.02 0.03 0.02 0.02 0.01 0 0.01 0.01 0.01 0 0.01 0.01 0 0 0.01 0 c 0,0.05 0,0.5 -0.5,0.5 -0.5,0 -0.6,-0.16 -0.8,-1 l -2.9,-11.5 c -7.9,-0.25 -15.2,-6.88 -15.2,-13.66 0,-4.73 3.4,-8.67 9.5,-9.01 l 0.3,1.09 c -3,0.14 -6.6,1.89 -6.6,6.88 0,5.98 4.3,12.95 11.7,13.59 l -5.1,-20.47 -0.3,-1.09 c -0.4,-1.55 -0.7,-3.14 -1.1,-4.69 -0.6,-2.34 -1.1,-4.23 -1.1,-4.39 0,-0.48 0.3,-0.55 0.6,-0.55 0.2,0 0.3,0.07 0.5,0.21 0.1,0.09 0.4,1.29 0.5,2 l 1.9,7.42 0.3,1.09 5.1,20.47 c 3.8,-0.19 6.6,-2.48 6.6,-6.87 0,-5.88 -4.2,-13 -11.7,-13.6 l -0.3,-1.09 c 8.1,0.25 15.3,6.97 15.3,13.64 0,3.94 -2.7,8.53 -9.6,9.03 z"
           inkscape:connector-curvature="0"
           style="fill:#000000;stroke-width:0" /><path
           id="path1536"
           d="m 1251,342.57 v -0.12 -0.11 l -0.1,-0.12 v -0.12 l -0.1,-0.13 v -0.12 l -0.1,-0.13 -0.1,-0.13 v -0.12 l -0.1,-0.13 -0.1,-0.13 -0.1,-0.13 -0.1,-0.12 -0.1,-0.13 -0.1,-0.12 -0.1,-0.11 -0.1,-0.12 -0.1,-0.11 -0.1,-0.1 -0.1,-0.11 -0.1,-0.09 -0.2,-0.09 -0.1,-0.09 -0.1,-0.07 -0.2,-0.07 -0.1,-0.06 -0.1,-0.06 -0.2,-0.04 -0.2,-0.04 -0.1,-0.02 -0.2,-0.02 -0.1,-0.01 c -0.1,0 -1.2,0 -1.9,0.49 1.4,0.45 1.5,1.72 1.5,1.92 0,0.77 -0.6,1.3 -1.4,1.3 -0.9,0 -2,-0.85 -2,-2.14 0,-1.74 2,-2.53 3.7,-2.53 1.6,0 3,1 3.9,2.46 0.8,-1.84 2.7,-2.46 4.1,-2.46 4.1,0 6.2,4.34 6.2,5.32 0,0.46 -0.5,0.46 -0.6,0.46 -0.5,0 -0.5,-0.18 -0.6,-0.6 -0.8,-2.4 -2.9,-4.22 -4.8,-4.22 -1.4,0 -2.1,0.94 -2.1,2.27 0,0.91 0.8,4.08 1.8,7.95 0.7,2.67 2.2,3.55 3.4,3.55 0.1,0 1.1,0 1.9,-0.48 -1.1,-0.32 -1.6,-1.3 -1.6,-1.93 0,-0.76 0.6,-1.28 1.4,-1.28 0.8,0 2,0.66 2,2.13 0,1.95 -2.3,2.53 -3.6,2.53 -1.8,0 -3.2,-1.14 -4,-2.47 -0.6,1.44 -2.2,2.47 -4.1,2.47 -3.9,0 -6.2,-4.28 -6.2,-5.33 0,-0.45 0.5,-0.45 0.6,-0.45 0.5,0 0.5,0.14 0.7,0.59 0.8,2.72 3.1,4.22 4.8,4.22 1.1,0 2,-0.63 2,-2.3 0,-0.7 -0.4,-2.43 -0.7,-3.62 z"
           inkscape:connector-curvature="0"
           style="fill:#000000;stroke-width:0" /></g>    </g>
    <g
       id="g1609"
       transform="matrix(0.56408997,0,0,0.56408997,-118.30449,55.446949)">
      <g
         word-spacing="normal"
         letter-spacing="normal"
         font-size-adjust="none"
         font-stretch="normal"
         font-weight="normal"
         font-variant="normal"
         font-style="normal"
         stroke-miterlimit="10.433"
         xml:space="preserve"
         transform="matrix(0.3,0,0,-0.3,-52.5,222.75)"
         id="g1607"
         style="font-style:normal;font-variant:normal;font-weight:normal;font-stretch:normal;letter-spacing:normal;word-spacing:normal;text-anchor:start;fill:none;fill-opacity:1;fill-rule:evenodd;stroke:#000000;stroke-linecap:butt;stroke-linejoin:miter;stroke-miterlimit:10.43299961;stroke-dasharray:none;stroke-dashoffset:0;stroke-opacity:1"><path
           id="path1601"
           d="m 1227.8,379.82 v 0 0.01 0 0.01 0.01 0.01 0.01 0.01 0.02 0.02 0.02 0.03 0.02 0.03 0.03 0.02 0.03 0.03 0.06 l 0.1,0.06 v 0.03 0.03 0.02 0.03 0.02 0.03 0.02 0.02 0.01 0.01 0.01 0.01 0 0.01 0.01 0 0 0.01 0 c 0,0.05 0,0.5 -0.6,0.5 -0.5,0 -0.5,-0.16 -0.7,-1 l -2.9,-11.5 c -7.9,-0.25 -15.3,-6.88 -15.3,-13.66 0,-4.73 3.5,-8.67 9.6,-9.01 l 0.2,1.09 c -2.9,0.14 -6.5,1.89 -6.5,6.88 0,5.98 4.3,12.95 11.7,13.59 l -5.2,-20.47 -0.2,-1.09 c -0.4,-1.55 -0.7,-3.14 -1.1,-4.69 -0.6,-2.34 -1.1,-4.23 -1.1,-4.39 0,-0.48 0.3,-0.55 0.6,-0.55 0.2,0 0.3,0.07 0.5,0.21 0,0.09 0.4,1.29 0.5,2 l 1.9,7.42 0.3,1.09 5.1,20.47 c 3.8,-0.19 6.6,-2.48 6.6,-6.87 0,-5.88 -4.3,-13 -11.7,-13.6 l -0.3,-1.09 c 8,0.25 15.3,6.97 15.3,13.64 0,3.94 -2.7,8.53 -9.6,9.03 z"
           inkscape:connector-curvature="0"
           style="fill:#000000;stroke-width:0" /><path
           id="path1603"
           d="m 1244.3,342.57 v -0.12 l -0.1,-0.11 v -0.12 l -0.1,-0.12 v -0.13 l -0.1,-0.12 v -0.13 l -0.1,-0.13 -0.1,-0.12 v -0.13 l -0.1,-0.13 -0.1,-0.13 -0.1,-0.12 -0.1,-0.13 -0.1,-0.12 -0.1,-0.11 -0.1,-0.12 -0.1,-0.11 -0.1,-0.1 -0.1,-0.11 -0.2,-0.09 -0.1,-0.09 -0.1,-0.09 -0.1,-0.07 -0.2,-0.07 -0.1,-0.06 -0.2,-0.06 -0.1,-0.04 -0.2,-0.04 -0.1,-0.02 -0.2,-0.02 -0.1,-0.01 c -0.2,0 -1.2,0 -1.9,0.49 1.4,0.45 1.5,1.72 1.5,1.92 0,0.77 -0.6,1.3 -1.4,1.3 -1,0 -2,-0.85 -2,-2.14 0,-1.74 2,-2.53 3.7,-2.53 1.6,0 3,1 3.9,2.46 0.8,-1.84 2.7,-2.46 4.1,-2.46 4,0 6.2,4.34 6.2,5.32 0,0.46 -0.5,0.46 -0.6,0.46 -0.5,0 -0.5,-0.18 -0.7,-0.6 -0.7,-2.4 -2.8,-4.22 -4.7,-4.22 -1.4,0 -2.2,0.94 -2.2,2.27 0,0.91 0.9,4.08 1.8,7.95 0.8,2.67 2.3,3.55 3.5,3.55 0,0 1.1,0 1.8,-0.48 -1.1,-0.32 -1.5,-1.3 -1.5,-1.93 0,-0.76 0.6,-1.28 1.4,-1.28 0.8,0 1.9,0.66 1.9,2.13 0,1.95 -2.2,2.53 -3.6,2.53 -1.7,0 -3.1,-1.14 -3.9,-2.47 -0.6,1.44 -2.2,2.47 -4.2,2.47 -3.9,0 -6.1,-4.28 -6.1,-5.33 0,-0.45 0.5,-0.45 0.6,-0.45 0.5,0 0.5,0.14 0.7,0.59 0.8,2.72 3,4.22 4.7,4.22 1.2,0 2.1,-0.63 2.1,-2.3 0,-0.7 -0.4,-2.43 -0.7,-3.62 z"
           inkscape:connector-curvature="0"
           style="fill:#000000;stroke-width:0" /><path
           id="path1605"
           d="m 1267.2,360.42 v 0 0 0.01 0.01 0.01 0.01 0.02 0.02 0.02 0.02 0.02 l 0.1,0.02 v 0.03 0.03 0.03 0.03 0.03 0.03 0.03 0.04 0.03 l 0.1,0.03 v 0.04 0.04 0.03 0.04 0.04 0.03 0.04 0.04 0.03 0.04 0.03 c 0,0.91 -0.8,1.47 -1.5,1.47 -1,0 -1.3,-0.76 -1.5,-1.14 l -3.8,-10.78 c -0.1,-0.31 -0.1,-0.38 -0.1,-0.41 0,-0.39 1.1,-0.64 1.1,-0.64 0.2,0 0.3,0.13 0.4,0.42 z"
           inkscape:connector-curvature="0"
           style="fill:#000000;stroke-width:0" /></g>    </g>
  </g>
</svg>
